<?xml version="1.0" encoding="UTF-8" standalone="no"?>
<svg
   id="a"
   viewBox="0 0 386.98001 430.83732"
   version="1.1"
   sodipodi:docname="Header_Action_profile.svg"
   width="386.98001"
   height="430.83734"
   inkscape:export-filename="../../../../bitmap.svg"
   inkscape:export-xdpi="96"
   inkscape:export-ydpi="96"
   xmlns:inkscape="http://www.inkscape.org/namespaces/inkscape"
   xmlns:sodipodi="http://sodipodi.sourceforge.net/DTD/sodipodi-0.dtd"
   xmlns="http://www.w3.org/2000/svg"
   xmlns:svg="http://www.w3.org/2000/svg">
  <sodipodi:namedview
     id="namedview87"
     pagecolor="#505050"
     bordercolor="#ffffff"
     borderopacity="1"
     inkscape:showpageshadow="0"
     inkscape:pageopacity="0"
     inkscape:pagecheckerboard="1"
     inkscape:deskcolor="#505050"
     showgrid="false" />
  <defs
     id="defs66">
    <style
       id="style64">.b{fill:#fff;}</style>
  </defs>
  <path
     class="b"
     d="m 294.85,89.120202 c 0,-28.96 -22.59,-52.72 -51.56,-53.87 -9.85,-27.8099998 -40.55,-42.2899998 -68.36,-31.8599998 -15.06,5.21 -26.65,17.3799998 -31.86,31.8599998 -29.54,1.16 -52.72,26.07 -51.56,55.61 0.58,15.639998 8.11,30.699998 20.85,40.549998 -1.16,4.63 -2.32,9.85 -2.32,15.06 0,29.54 23.75,53.3 53.3,53.3 11.01,0 21.43,-3.48 30.12,-9.27 24.91,16.22 57.93,9.85 74.15,-15.06 8.69,-12.74 11.01,-28.96 6.95,-44.03 12.74,-10.43 20.28,-26.07 20.28,-42.289998 m -59.67,-35.92 c 0,21.43 -15.64,39.39 -36.5,42.29 -0.58,-2.32 -0.58,-4.63 -0.58,-6.37 0,-21.43 15.64,-38.81 36.5,-42.29 1.16,2.32 1.16,4.63 0.58,6.37 M 192.88,176.0102 c -16.8,-16.22 -17.38,-43.45 -1.16,-60.25 l 0.58,-0.58 c 16.8,16.22 17.38,43.45 1.16,60.25 0,0.58 -0.58,0.58 -0.58,0.58 M 150.59,46.830202 c 20.85,2.9 36.5,20.85 36.5,42.29 0,2.32 0,4.63 -0.58,6.37 -20.85,-2.9 -36.5,-20.85 -36.5,-42.29 0,-1.74 0,-4.06 0.58,-6.37 m 31.86,61.409998 c -6.95,14.48 -22.01,23.75 -38.23,23.75 -6.95,0 -13.32,-1.74 -19.7,-4.63 6.95,-14.48 22.01,-23.75 38.23,-23.75 6.95,0 13.32,1.74 19.7,4.63 m 20.28,-0.58 c 20.85,-11.009998 46.92,-2.9 57.35,18.54 0,0 0,0.58 0.58,0.58 -20.85,11.01 -46.92,2.9 -57.35,-18.54 0,0 -0.58,0 -0.58,-0.58 m -9.85,-97.319998 c 16.8,0 32.44,9.85 39.39,25.49 -17.38,2.9 -31.86,14.48 -39.39,30.12 -7.53,-15.64 -22.01,-27.23 -39.39,-30.12 6.95,-15.06 22.01,-24.91 39.39,-25.49 m -91.53,78.78 c 0,-22.01 16.22,-39.97 38.23,-42.29 -0.58,2.32 -0.58,4.63 -0.58,6.95 0,15.06 6.37,29.54 17.38,39.39 -17.38,1.74 -33.02,12.169998 -41.13,27.809998 -8.69,-8.69 -13.9,-20.28 -13.9,-31.859998 m 18.54,56.769998 c 0,-2.9 0.58,-5.79 1.16,-8.69 15.64,7.53 34.18,6.95 49.24,-1.16 -0.58,3.48 -1.16,6.37 -1.16,9.85 0,13.9 5.21,27.23 15.06,37.08 -20.28,12.17 -46.34,5.21 -58.51,-15.06 -4.06,-6.95 -5.79,-14.48 -5.79,-22.01 m 145.4,-0.58 c 0,23.75 -19.12,42.87 -42.87,42.87 -7.53,0 -14.48,-1.74 -20.85,-5.79 9.27,-9.85 14.48,-23.17 14.48,-36.5 0,-3.48 -0.58,-6.95 -1.16,-10.43 8.11,4.63 16.8,6.95 26.07,6.95 8.11,0 16.22,-1.74 23.17,-5.21 0.58,2.9 1.16,5.79 1.16,8.11 M 229.37,92.600202 c 11.01,-9.85 17.38,-24.33 17.38,-39.39 0,-2.32 0,-4.63 -0.58,-6.95 23.17,2.9 39.97,23.75 37.65,46.92 -1.16,10.429998 -6.37,19.699998 -13.9,26.649998 -8.11,-14.48 -23.17,-24.909998 -40.55,-27.229998"
     id="path68" />
  <g
     id="g84"
     transform="translate(-106.53,-84.589798)">
    <path
       class="b"
       d="m 492.91,404.27 -39.39,-71.83 c -0.58,-1.16 -2.32,-1.74 -3.48,-1.16 l -50.4,24.91 c -1.16,0.58 -2.9,1.16 -4.63,1.16 -1.73,0 -3.48,-0.58 -5.21,-1.16 l -4.63,-2.32 c -11.59,-5.79 -46.34,-23.17 -50.98,-24.91 -2.32,-0.58 -4.63,-0.58 -6.95,0 -1.16,0.58 -30.7,10.43 -37.65,12.74 -3.48,1.16 -6.95,2.32 -10.43,4.63 -2.32,1.74 -40.55,29.54 -43.45,31.86 -1.16,0.58 -1.74,1.74 -1.74,2.9 -0.58,3.48 0.58,6.95 2.9,9.85 2.32,2.9 5.79,4.06 9.85,4.06 2.9,0 5.21,-0.58 8.11,-1.16 2.32,-0.58 54.45,-22.59 54.45,-22.59 1.16,-0.58 2.9,-0.58 4.06,-1.16 1.74,0 3.48,0.58 5.21,1.74 4.06,3.48 98.48,77.63 101.38,80.52 0.58,0.58 1.74,0.58 2.32,0 l 0.58,-0.58 69.52,-44.61 c 1.74,-1.74 1.16,-2.32 0.58,-2.9 z"
       id="path70" />
    <path
       class="b"
       d="m 411.23,458.15 -93.27,-74.73 c -1.74,-1.16 -3.48,-1.74 -5.21,-2.32 h -1.16 c -1.16,0 -1.74,0 -2.9,0.58 l -48.08,20.28 c -4.06,1.74 -8.69,2.9 -12.74,2.9 -6.95,0 -13.32,-2.9 -17.96,-7.53 -5.21,-4.06 -7.53,-9.85 -6.95,-16.22 0.58,-4.63 3.48,-8.69 7.53,-10.43 l 2.9,-1.74 h -1.74 l -4.63,0.58 c -9.85,1.74 -20.28,1.16 -30.12,-1.74 -13.9,-4.63 -53.87,-23.17 -53.87,-23.17 h -0.58 c -1.16,0 -2.32,0.58 -2.9,1.16 l -33.02,59.09 v 1.16 c 0,0.58 0.58,0.58 1.16,1.16 l 67.78,33.6 8.11,4.06 v 0 -2.32 c 4.06,-10.43 15.64,-15.64 25.49,-11.59 4.63,1.74 8.11,5.21 10.43,9.27 8.69,-6.95 20.85,-5.79 27.81,2.9 0.58,0.58 1.16,1.74 1.74,2.32 3.48,-2.9 8.11,-4.63 12.74,-4.63 9.27,0 17.38,6.37 19.7,15.64 2.32,-1.16 5.21,-1.74 7.53,-1.74 11.01,0 20.28,9.27 20.28,20.28 v 2.9 l 29.54,23.17 c 1.74,1.16 3.48,2.32 5.79,2.32 5.21,0 9.27,-4.63 9.27,-9.85 0,-2.9 -1.16,-5.79 -3.48,-7.53 l -57.93,-45.76 h -0.58 l -0.58,-0.58 c -2.9,-1.74 -3.48,-5.21 -1.74,-8.11 0,-0.58 0.58,-0.58 0.58,-1.16 2.9,-3.48 7.53,-1.16 9.27,0 l 71.25,56.77 c 3.48,4.06 9.85,4.06 13.32,0 4.06,-3.48 4.06,-9.85 0,-13.32 -0.58,-0.58 -1.16,-1.16 -2.32,-1.74 l -70.67,-56.77 c -1.74,-1.74 -4.63,-4.63 -1.74,-8.69 1.74,-2.32 5.21,-2.32 7.53,-0.58 v 0 l 82.84,67.2 c 3.48,3.48 9.85,3.48 13.32,0 3.48,-3.48 3.48,-9.85 0,-13.32 -0.58,-0.58 -1.16,-1.16 -1.74,-1.74 v 0 z"
       id="path72" />
    <path
       class="b"
       d="m 313.32,498.12 -8.11,-6.37 -5.79,17.38 c 0,0.58 -0.58,1.16 -0.58,1.74 l 2.9,2.32 c 4.06,3.48 9.85,2.9 13.32,-1.74 v 0 c 3.48,-3.48 2.9,-9.27 -1.74,-13.32 q 0,0.58 0,0 z"
       id="path74" />
    <path
       class="b"
       d="m 294.79,468.57 -1.74,-1.16 c -1.16,-0.58 -2.32,-0.58 -4.06,-0.58 -1.16,0 -1.74,0 -2.9,0.58 -1.74,0.58 -3.48,1.74 -4.63,2.9 -0.58,0.58 -0.58,1.16 -1.16,1.74 v 0.58 0 l -4.63,12.74 -1.74,5.79 -2.32,6.95 -0.58,1.74 c -0.58,1.16 -0.58,1.74 -0.58,2.9 0,1.16 0,2.32 0.58,4.06 0.58,1.74 1.74,2.9 3.48,4.06 0.58,0.58 1.16,0.58 1.74,1.16 1.16,0.58 2.32,0.58 4.06,0.58 3.48,0 6.37,-1.74 8.11,-4.06 0.58,-0.58 1.16,-1.74 1.16,-2.9 l 0.58,-1.74 6.37,-19.12 1.74,-4.63 V 479 c 0,-1.16 0.58,-2.32 0.58,-3.48 0.58,-2.32 -1.16,-5.21 -4.06,-6.95 z"
       id="path76" />
    <path
       class="b"
       d="m 271.04,465.68 c 0,0 0,-0.58 0,0 v -3.48 c 0,-5.21 -4.06,-9.85 -9.27,-9.85 v 0 c -1.74,0 -3.48,0.58 -4.63,1.16 -1.74,1.16 -3.48,2.9 -4.06,4.63 v 0.58 l -3.48,12.17 -4.63,12.74 -0.58,1.74 c -0.58,1.16 -0.58,1.74 -0.58,2.9 0,3.48 1.74,6.95 5.21,8.69 0.58,0.58 1.74,0.58 2.32,1.16 h 1.74 c 4.63,0 8.11,-2.9 9.85,-6.95 l 2.9,-7.53 5.79,-17.96 c -0.58,0.58 -0.58,0 -0.58,0 z"
       id="path78" />
    <path
       class="b"
       d="m 232.22,447.14 c -1.74,0 -4.06,0.58 -5.21,1.74 -1.16,0.58 -1.74,1.74 -2.9,2.9 -0.58,0.58 -0.58,1.16 -1.16,1.74 v 0.58 l -4.63,13.32 -0.58,2.32 c -0.58,1.16 -0.58,1.74 -0.58,2.9 0,5.21 4.06,9.27 9.85,9.85 3.48,0 6.37,-1.74 8.11,-4.06 0.58,-0.58 1.16,-1.74 1.16,-2.9 l 3.48,-10.43 1.16,-3.48 c 0,-0.58 0.58,-1.16 0.58,-2.32 v -2.32 c 0,-5.21 -4.06,-9.85 -9.27,-9.85 z"
       id="path80" />
    <path
       class="b"
       d="m 209.63,445.4 c -1.16,-1.74 -2.32,-2.9 -4.06,-3.48 -1.16,-0.58 -2.32,-0.58 -3.48,-0.58 -1.74,0 -4.06,0.58 -5.21,1.74 -0.58,0.58 -1.74,1.16 -2.32,1.74 -0.58,0.58 -1.16,1.74 -1.16,2.32 v 0 l -1.16,4.06 c 0,0 -0.58,1.74 -1.16,3.48 0,0.58 -0.58,1.74 -0.58,2.32 v 1.74 c 1.16,4.63 4.63,7.53 9.27,7.53 2.32,0 4.06,-0.58 5.79,-1.74 0.58,-0.58 1.74,-1.16 2.32,-2.32 0.58,-0.58 1.16,-1.74 1.16,-2.9 l 1.16,-4.63 v -1.16 c 0,-0.58 0,-1.74 0.58,-2.32 v -1.16 c 0,-1.16 0,-2.32 -0.58,-4.06 0,0.58 0,0 -0.58,-0.58 z"
       id="path82" />
  </g>
</svg>
