<?xml version="1.0" encoding="UTF-8" standalone="no"?>
<svg
   id="a"
   viewBox="0 0 433.97 424.85956"
   version="1.1"
   width="433.97"
   height="424.85956"
   sodipodi:docname="Header_Targets.svg"
   xmlns:inkscape="http://www.inkscape.org/namespaces/inkscape"
   xmlns:sodipodi="http://sodipodi.sourceforge.net/DTD/sodipodi-0.dtd"
   xmlns="http://www.w3.org/2000/svg"
   xmlns:svg="http://www.w3.org/2000/svg">
  <sodipodi:namedview
     id="namedview49"
     pagecolor="#505050"
     bordercolor="#ffffff"
     borderopacity="1"
     inkscape:showpageshadow="0"
     inkscape:pageopacity="0"
     inkscape:pagecheckerboard="1"
     inkscape:deskcolor="#505050"
     showgrid="false" />
  <defs
     id="defs594">
    <style
       id="style592">.b{fill:#fff;}</style>
  </defs>
  <path
     class="b"
     d="m 433.97,189.71953 c 0,-61.38 -48.83,-111.530003 -109.66,-113.750003 C 303.39,16.689527 238.37,-14.400469 179.09,6.5195268 146.63,17.979527 121.1,43.509527 109.64,75.969527 48.82,78.189527 0,128.33953 0,189.71953 c 0,35.09 16.22,68.21 43.93,89.73 -2.97,10.27 -4.49,20.91 -4.49,31.6 0,62.74 51.07,113.81 113.85,113.81 22.94,0.02 45.34,-6.93 64.24,-19.93 18.68,12.52 40.67,19.2 63.16,19.18 62.77,0 113.84,-51.07 113.84,-113.82 0,-10.47 -1.45,-20.89 -4.31,-30.97 27.6,-21.54 43.74,-54.59 43.75,-89.6 m -126.09,-75.86 c 0,45.57 -33.73,83.29 -77.51,89.82 -0.76,-4.62 -1.16,-9.3 -1.19,-13.98 0.07,-44.99 33.02,-83.17 77.51,-89.820003 0.76,4.620003 1.15,9.300003 1.19,13.980003 m -90.49,261.54 c -36,-34.8 -36.97,-92.2 -2.16,-128.2 0.43,-0.44 0.85,-0.88 1.29,-1.31 36,34.78 36.98,92.16 2.2,128.16 -0.44,0.45 -0.88,0.9 -1.33,1.34 M 127.24,99.889527 c 43.78,6.510003 77.5,44.240003 77.5,89.820003 -0.03,4.69 -0.43,9.36 -1.2,13.98 -43.76,-6.54 -77.47,-44.26 -77.47,-89.83 0.04,-4.69 0.43,-9.36 1.19,-13.980003 m 67.76,130.490003 c -22.27,44.79 -76.64,63.05 -121.43,40.77 -0.51,-0.25 -1.02,-0.51 -1.53,-0.78 22.27,-44.79 76.64,-63.05 121.43,-40.77 0.51,0.25 1.02,0.51 1.53,0.78 m 43.59,-0.61 c 44.3,-23.27 99.08,-6.22 122.35,38.08 0.41,0.79 0.82,1.58 1.21,2.39 -44.3,23.27 -99.08,6.22 -122.35,-38.08 -0.41,-0.79 -0.82,-1.58 -1.21,-2.39 M 216.97,22.959527 c 36.17,0.04 68.89,21.5 83.34,54.66 -36.52,6.53 -67.59,30.380003 -83.34,63.970003 -15.73,-33.6 -46.81,-57.460003 -83.34,-63.970003 14.45,-33.16 47.17,-54.62 83.34,-54.66 M 22.95,189.71953 c 0.06,-46.42 35.03,-85.36 81.17,-90.390003 -4.84,36.830003 8.69,73.690003 36.21,98.640003 -37.01,4.27 -69.6,26.36 -87.29,59.15 -19.14,-17.18 -30.08,-41.68 -30.09,-67.4 m 39.41,121.33 c 0,-6.33 0.66,-12.65 1.98,-18.84 33.22,16.07 72.17,15 104.46,-2.86 -6.85,36.3 4.43,73.65 30.22,100.1 -43.23,25.36 -98.84,10.87 -124.19,-32.37 -8.19,-13.96 -12.49,-29.85 -12.47,-46.03 m 309.25,-0.76 c 0.07,50.13 -40.51,90.83 -90.63,90.9 -15.82,0.02 -31.38,-4.09 -45.12,-11.93 25.36,-26.63 36.23,-63.91 29.14,-100 32.37,17.98 71.47,19.04 104.77,2.86 1.23,5.98 1.84,12.07 1.84,18.17 m -77.28,-112.99 c 23.27,-21.5 36.5,-51.74 36.49,-83.43 -0.01,-4.86 -0.33,-9.72 -0.95,-14.540003 49.84,5.280003 85.96,49.970003 80.68,99.810003 -2.35,22.21 -12.81,42.76 -29.37,57.74 -17.5,-32.84 -49.91,-55.07 -86.84,-59.58"
     id="path596" />
</svg>
