<?xml version="1.0" encoding="UTF-8" standalone="no"?>
<svg
   id="a"
   viewBox="0 0 338.04001 430.03"
   version="1.1"
   width="338.04001"
   height="430.03"
   xmlns="http://www.w3.org/2000/svg"
   xmlns:svg="http://www.w3.org/2000/svg">
  <defs
     id="defs425">
    <style
       id="style423">.b{fill:#fff;}</style>
  </defs>
  <g
     id="g441"
     transform="translate(-130.98,-85.39)">
    <g
       id="g431">
      <path
         class="b"
         d="m 133.22,268.05 h 74.87 c 1.01,0 1.83,-0.81 1.84,-1.82 0,-0.46 -0.17,-0.91 -0.48,-1.25 l -0.1,-0.11 -37.26,-48.2 -0.36,-0.4 c -0.35,-0.38 -0.84,-0.6 -1.35,-0.6 -0.45,0 -0.87,0.18 -1.2,0.47 l -0.22,0.26 -0.35,0.39 -36.34,47.7 -0.56,0.68 c -0.21,0.3 -0.31,0.66 -0.31,1.03 0,1.02 0.83,1.85 1.85,1.85 v 0 z"
         id="path427" />
      <path
         class="b"
         d="m 207.86,274.87 h -75.04 c -1.01,0 -1.84,0.82 -1.84,1.84 v 0 58.7 c 0,1.02 0.82,1.84 1.84,1.85 h 24.15 v -36.95 c 0,-1.01 0.82,-1.83 1.83,-1.84 h 22.41 c 1.01,0 1.83,0.82 1.84,1.83 v 0 36.96 h 24.79 c 1.02,0 1.84,-0.83 1.84,-1.85 v 0 -58.72 c -0.01,-1 -0.82,-1.81 -1.82,-1.82 z"
         id="path429" />
    </g>
    <path
       class="b"
       d="m 467.19,259.47 h -74.27 c -0.99,-0.02 -1.8,0.77 -1.82,1.76 v 0 75 c 0.02,0.99 0.83,1.78 1.82,1.76 h 74.27 c 0.99,0.02 1.81,-0.77 1.82,-1.76 v 0 -74.99 c -0.01,-0.99 -0.82,-1.78 -1.81,-1.77 h -0.02 m -40.63,48.96 c -0.01,0.99 -0.82,1.78 -1.81,1.77 h -22.19 c -0.99,0.01 -1.81,-0.78 -1.82,-1.77 v 0 -13.48 c 0.01,-0.99 0.82,-1.78 1.81,-1.77 h 22.2 c 0.99,-0.01 1.8,0.78 1.81,1.76 v 0 z m 0,-24.92 c -0.01,0.99 -0.82,1.78 -1.81,1.77 h -22.19 c -0.99,0.01 -1.81,-0.78 -1.82,-1.77 v 0 -13.49 c 0.02,-0.99 0.83,-1.78 1.82,-1.76 h 22.19 c 0.99,-0.01 1.8,0.78 1.81,1.76 v 0 z m 33.91,24.92 c -0.01,0.99 -0.82,1.78 -1.81,1.77 h -22.19 c -0.99,0.02 -1.81,-0.77 -1.82,-1.76 v 0 -13.49 c 0.01,-0.99 0.82,-1.78 1.81,-1.77 h 22.19 c 0.99,-0.02 1.81,0.77 1.82,1.76 v 0 z m 0,-24.92 c -0.01,0.99 -0.82,1.78 -1.81,1.77 h -22.19 c -0.99,0.02 -1.81,-0.77 -1.82,-1.76 v 0 -13.5 c 0.02,-0.99 0.83,-1.78 1.82,-1.76 h 22.18 c 0.99,-0.02 1.81,0.77 1.82,1.76 v 0 z"
       id="path433" />
    <path
       class="b"
       d="m 294.55,85.4 h -72.69 c -0.98,0 -1.78,0.8 -1.77,1.78 v 0 248.38 c 0,0.98 0.79,1.77 1.77,1.78 h 72.69 c 0.98,0 1.78,-0.8 1.79,-1.78 V 87.17 c 0,-0.99 -0.8,-1.78 -1.79,-1.78 m -43.23,223.65 c 0,0.53 -0.43,0.96 -0.96,0.96 h -16.64 c -0.53,0 -0.96,-0.43 -0.96,-0.96 V 290.5 c 0,-0.53 0.43,-0.95 0.95,-0.95 h 16.64 c 0.53,0 0.95,0.42 0.96,0.95 v 0 18.55 z m 0,-42.59 c 0,0.53 -0.43,0.95 -0.96,0.95 h -16.64 c -0.52,0 -0.93,-0.43 -0.94,-0.95 v -18.54 c 0,-0.53 0.42,-0.95 0.95,-0.96 h 16.63 c 0.53,0 0.95,0.42 0.96,0.95 v 0 z m 0,-42.58 c 0,0.53 -0.43,0.96 -0.96,0.96 h -16.64 c -0.53,0 -0.96,-0.43 -0.96,-0.96 v -18.55 c 0,-0.53 0.43,-0.95 0.96,-0.95 h 16.64 c 0.53,0 0.95,0.42 0.96,0.95 z m 0,-42.59 c 0,0.53 -0.43,0.96 -0.96,0.96 h -16.64 c -0.52,-0.01 -0.94,-0.44 -0.94,-0.97 v -18.54 c 0,-0.52 0.43,-0.94 0.95,-0.94 h 16.62 c 0.52,0 0.95,0.41 0.96,0.94 v 0 18.56 z m 0,-42.58 c 0,0.53 -0.43,0.95 -0.96,0.95 h -16.64 c -0.53,0 -0.95,-0.42 -0.96,-0.95 v -18.55 c 0,-0.53 0.43,-0.96 0.96,-0.96 h 16.64 c 0.53,0 0.96,0.43 0.96,0.96 v 0 z m 32.63,170.35 c 0,0.53 -0.43,0.96 -0.96,0.96 h -16.64 c -0.53,0 -0.95,-0.42 -0.96,-0.95 v 0 -18.55 c 0,-0.53 0.43,-0.95 0.95,-0.95 h 16.64 c 0.53,0 0.96,0.42 0.96,0.94 v 0 18.55 z m 0,-42.59 c 0,0.53 -0.42,0.95 -0.95,0.96 0,0 0,0 -0.01,0 h -16.63 c -0.52,0 -0.95,-0.41 -0.96,-0.94 0,0 0,-0.01 0,-0.02 v -18.54 c 0,-0.52 0.41,-0.95 0.94,-0.96 0,0 0.01,0 0.02,0 h 16.63 c 0.53,0 0.96,0.42 0.96,0.94 0,0 0,0 0,0.01 v 18.54 z m 0,-42.58 c 0,0.53 -0.43,0.96 -0.96,0.96 h -16.64 c -0.53,0 -0.95,-0.42 -0.96,-0.95 v 0 -18.56 c 0,-0.53 0.43,-0.95 0.95,-0.95 h 16.64 c 0.53,0 0.96,0.42 0.96,0.95 v 0 18.55 z m 0,-42.59 c 0,0.53 -0.43,0.96 -0.96,0.96 h -16.64 c -0.53,0 -0.95,-0.42 -0.96,-0.95 v 0 -18.56 c 0,-0.52 0.43,-0.94 0.95,-0.94 h 16.64 c 0.52,0 0.95,0.41 0.96,0.93 v 0 18.56 z m 0,-42.58 c 0,0.53 -0.43,0.95 -0.96,0.95 h -16.63 c -0.53,0 -0.95,-0.42 -0.96,-0.95 v 0 -18.56 c 0,-0.53 0.42,-0.95 0.95,-0.96 h 16.64 c 0.53,0 0.96,0.42 0.96,0.95 v 0 18.56 z"
       id="path435" />
    <path
       class="b"
       d="m 468.93,251.93 c 0,0.82 -0.67,1.49 -1.49,1.49 h -74.75 c -0.82,0 -1.49,-0.67 -1.49,-1.49 v -14.94 c 0,-0.82 0.67,-1.49 1.49,-1.49 h 74.75 c 0.82,0 1.49,0.67 1.49,1.49 z"
       id="path437" />
    <path
       class="b"
       d="m 382.35,132.31 c -0.23,-0.82 -0.98,-1.38 -1.83,-1.39 -0.37,0 -0.74,0.13 -1.04,0.34 l -0.13,0.09 -0.61,0.78 -71.43,90.61 -0.33,0.44 c -0.38,0.37 -0.61,0.88 -0.62,1.41 v 111.35 c 0,0.98 0.8,1.78 1.78,1.77 h 72.61 c 0.98,0 1.77,-0.79 1.78,-1.77 v 0 -202.89 c 0,-0.26 -0.06,-0.51 -0.17,-0.75 z m -30.07,49.21 0.5,-0.64 c 4.88,-6.27 13.12,-16.43 17.14,-21.34 l 0.53,-0.63 c 0.39,-0.48 0.98,-0.76 1.6,-0.76 0.98,0 1.81,0.7 1.99,1.66 v 22.95 c 0,1.11 -0.89,2.01 -1.99,2.04 h -18.19 c -1.1,-0.03 -1.98,-0.94 -1.99,-2.04 0,-0.45 0.15,-0.89 0.42,-1.25 z m -11.3,126.9 c 0,0.98 -0.79,1.77 -1.77,1.78 h -21.68 c -0.98,0 -1.77,-0.79 -1.78,-1.77 v 0 -13.57 c 0,-0.98 0.79,-1.77 1.77,-1.77 h 21.67 c 0.98,0 1.77,0.79 1.78,1.77 v 0 13.56 z m 0,-25.05 c 0,0.98 -0.79,1.77 -1.77,1.78 h -21.68 c -0.98,0 -1.77,-0.79 -1.78,-1.77 v 0 -13.57 c 0,-0.98 0.78,-1.77 1.76,-1.78 0,0 0.01,0 0.02,0 h 21.66 c 0.98,0 1.77,0.78 1.78,1.76 0,0 0,0.01 0,0.02 v 13.56 z m 0,-25.05 c 0,0.98 -0.79,1.77 -1.77,1.77 h -21.67 c -0.98,0 -1.77,-0.79 -1.78,-1.77 v 0 -13.57 c 0,-0.98 0.79,-1.77 1.77,-1.78 h 21.67 c 0.98,0 1.77,0.79 1.78,1.77 v 0 13.57 z m 0.06,-54.9 v 29.87 c 0,0.98 -0.8,1.77 -1.78,1.78 H 317.6 c -0.98,0 -1.78,-0.79 -1.79,-1.77 v 0 -3.77 c 0,-0.23 0.05,-0.45 0.13,-0.66 0.03,-0.07 0.07,-0.14 0.11,-0.21 0.05,-0.08 0.1,-0.16 0.16,-0.23 0.05,-0.08 0.13,-0.19 0.2,-0.29 2.77,-3.98 15.26,-19.36 20.51,-25.79 l 0.53,-0.64 c 0.39,-0.48 0.98,-0.75 1.6,-0.75 0.97,0 1.81,0.7 1.99,1.66 z m 33.04,105 c 0,0.98 -0.8,1.78 -1.78,1.78 h -21.66 c -0.98,0 -1.78,-0.79 -1.79,-1.77 v 0 -13.57 c 0,-0.98 0.8,-1.78 1.78,-1.77 h 21.66 c 0.98,0 1.77,0.79 1.78,1.77 v 13.56 z m 0,-25.05 c 0,0.98 -0.8,1.78 -1.78,1.78 h -21.66 c -0.98,0 -1.78,-0.79 -1.79,-1.77 v 0 -13.57 c 0,-0.98 0.79,-1.77 1.77,-1.78 h 21.68 c 0.98,0 1.78,0.8 1.78,1.78 v 0 z m 0,-25.05 c 0,0.98 -0.8,1.77 -1.78,1.77 h -21.66 c -0.98,0 -1.78,-0.79 -1.79,-1.77 v 0 -13.57 c 0,-0.98 0.8,-1.78 1.78,-1.78 h 21.67 c 0.98,0 1.78,0.8 1.78,1.78 v 0 13.56 z m 0,-25.06 c 0,0.98 -0.8,1.77 -1.78,1.77 h -21.66 c -0.98,0 -1.78,-0.79 -1.79,-1.77 v 0 -13.56 c 0,-0.98 0.8,-1.78 1.78,-1.78 h 21.67 c 0.98,0 1.78,0.8 1.78,1.78 v 0 z m 0,-25.06 c 0,0.98 -0.8,1.78 -1.78,1.78 h -21.66 c -0.98,0 -1.78,-0.79 -1.79,-1.77 v 0 -13.57 c 0,-0.98 0.79,-1.78 1.77,-1.78 h 21.67 c 0.98,0 1.78,0.8 1.78,1.78 v 0 13.56 z"
       id="path439" />
  </g>
  <g
     id="g467"
     transform="translate(-130.98,-85.39)">
    <path
       class="b"
       d="m 427.53,382.77 c 0,-6.78 5.5,-12.27 12.28,-12.26 6.78,0 12.27,5.5 12.26,12.28 0,6.77 -5.49,12.26 -12.26,12.26 -6.78,0 -12.28,-5.5 -12.29,-12.28"
       id="path443" />
    <path
       class="b"
       d="m 454.16,399.78 c 8.42,0.78 14.87,7.85 14.86,16.31 v 34.06 c 0,2.63 -2.13,4.76 -4.76,4.76 -2.63,0 -4.76,-2.13 -4.76,-4.76 V 420.9 c 0,-1.1 -0.31,-2.58 -2.32,-2.58 -1.39,0 -1.68,1.47 -1.73,2.4 v 87.62 c 0,3.78 -3.07,6.84 -6.85,6.84 -3.77,0 -6.83,-3.06 -6.84,-6.84 v -50.49 c 0,-0.56 -0.2,-2 -1.94,-2 v 0 c -1.74,0 -1.96,1.45 -1.97,2 v 50.49 c 0.1,3.78 -2.89,6.92 -6.66,7.01 -3.78,0.1 -6.92,-2.89 -7.01,-6.66 0,-0.12 0,-0.23 0,-0.35 v -87.62 c -0.04,-0.94 -0.35,-2.4 -1.72,-2.4 -2.01,0 -2.32,1.48 -2.32,2.58 v 29.25 c -0.11,2.63 -2.33,4.66 -4.96,4.55 -2.47,-0.11 -4.44,-2.08 -4.55,-4.55 v -34.06 c 0,-8.47 6.45,-15.54 14.88,-16.31 0.29,-0.04 0.59,-0.07 0.89,-0.08 h 26.81 c 0.31,0 0.63,0.03 0.94,0.08"
       id="path445" />
    <path
       class="b"
       d="m 354.51,389.21 c 0,-6.42 -5.21,-11.62 -11.63,-11.62 -6.42,0 -11.62,5.21 -11.62,11.63 0,6.42 5.21,11.62 11.63,11.62 v 0 c 6.42,0 11.62,-5.21 11.62,-11.63"
       id="path447" />
    <path
       class="b"
       d="m 319.46,415.55 -9.67,31.49 c 0,0 -1.72,5.77 3.17,7.21 4.89,1.44 6.35,-4.19 6.35,-4.19 l 7.79,-26.26 c 0,0 0.44,-2.02 1.94,-1.58 1.5,0.44 0.95,2.59 0.95,2.59 l -13.56,49.24 h 12.62 v 35.25 c 0.09,3.35 2.88,5.98 6.22,5.89 3.22,-0.09 5.81,-2.68 5.89,-5.89 v -35.29 h 3.44 v 35.25 c 0.09,3.35 2.88,5.99 6.23,5.9 3.22,-0.09 5.81,-2.68 5.9,-5.9 v -35.25 h 12.61 l -13.56,-49.24 c 0,0 -0.57,-2.12 0.94,-2.57 1.52,-0.44 1.94,1.58 1.94,1.58 l 7.79,26.26 c 0,0 1.48,5.63 6.34,4.19 4.86,-1.44 3.17,-7.19 3.17,-7.19 l -9.67,-31.49 c 0,0 -3.45,-9.1 -11.09,-9.1 h -24.65 c -7.65,0 -11.09,9.1 -11.09,9.1"
       id="path449" />
    <path
       class="b"
       d="m 284.87,389.21 c 0,-6.42 -5.21,-11.62 -11.63,-11.62 -6.42,0 -11.62,5.21 -11.62,11.63 0,6.42 5.21,11.62 11.63,11.62 v 0 c 6.42,0 11.62,-5.21 11.62,-11.63"
       id="path451" />
    <path
       class="b"
       d="m 249.81,415.55 -9.66,31.49 c 0,0 -1.73,5.77 3.17,7.21 4.9,1.44 6.35,-4.19 6.35,-4.19 l 7.79,-26.26 c 0,0 0.42,-2.02 1.94,-1.58 1.52,0.44 0.94,2.59 0.94,2.59 l -13.56,49.24 h 12.62 v 35.25 c 0,3.35 2.71,6.06 6.06,6.06 3.35,0 6.06,-2.71 6.06,-6.06 v 0 -35.29 h 3.44 v 35.25 c 0.09,3.35 2.88,5.98 6.22,5.89 3.22,-0.09 5.81,-2.68 5.89,-5.89 v -35.25 h 12.62 l -13.56,-49.24 c 0,0 -0.58,-2.16 0.94,-2.59 1.51,-0.43 1.95,1.58 1.95,1.58 l 7.79,26.26 c 0,0 1.48,5.63 6.35,4.19 4.87,-1.44 3.17,-7.17 3.17,-7.17 l -9.67,-31.49 c 0,0 -3.45,-9.1 -11.09,-9.1 h -24.65 c -7.64,0 -11.11,9.1 -11.11,9.1"
       id="path453" />
    <path
       class="b"
       d="m 393.56,454.29 c 5.35,0 9.68,-4.33 9.68,-9.68 0,-5.35 -4.33,-9.68 -9.68,-9.68 -5.35,0 -9.67,4.33 -9.68,9.67 0,5.34 4.31,9.68 9.65,9.69 h 0.03"
       id="path455" />
    <path
       class="b"
       d="m 370.36,484.36 c -0.47,1.13 -0.86,3.55 1.41,4.58 2.66,1.22 4.15,-1.33 4.15,-1.33 l 5.26,-16.78 c 0,0 0.91,-1.12 0.91,0.04 v 39.5 h 0.02 c 0.08,2.74 2.37,4.9 5.11,4.82 2.63,-0.08 4.74,-2.19 4.82,-4.82 v -15.61 c 0,0 -0.29,-2.22 1.49,-2.22 1.78,0 1.5,2.22 1.5,2.22 v 15.59 c 0,2.75 2.23,4.98 4.98,4.98 2.75,0 4.98,-2.23 4.98,-4.98 v -39.5 c 0,-1.16 0.61,-0.33 0.61,-0.33 l 4.13,11.49 c 0,0 1.77,5.13 2.34,5.36 1.87,0.78 4.01,-0.11 4.79,-1.97 v 0 c 0.5,-1.18 0.35,-2.53 -0.39,-3.56 l 0.04,-0.04 c -0.12,-0.37 -6.17,-15.2 -6.88,-17.28 -2.18,-6.37 -6.16,-6.32 -9.98,-6.42 -3.82,-0.11 -6.12,0 -6.12,0 0,0 -2.44,-0.1 -7.5,0.05 -5.05,0.15 -6.65,2.75 -12.2,17.06 -0.79,2.06 -3.48,8.73 -3.51,9.13 l 0.04,0.03 z"
       id="path457" />
    <path
       class="b"
       d="m 168.73,395.05 c 6.78,0 12.29,-5.49 12.3,-12.27 0,-6.78 -5.49,-12.29 -12.27,-12.3 -6.78,0 -12.29,5.49 -12.3,12.27 v 0 c 0,6.79 5.49,12.28 12.27,12.3 z"
       id="path459" />
    <path
       class="b"
       d="m 183.17,399.72 c -0.33,-0.07 -0.65,-0.11 -0.98,-0.14 h -26.84 c -0.3,0.02 -0.6,0.07 -0.89,0.14 -8.44,0.8 -14.88,7.9 -14.86,16.37 v 34.06 c -0.01,1.75 0.95,3.37 2.49,4.2 -0.07,0.13 -0.12,0.27 -0.16,0.42 l -10.91,57.8 c -0.2,0.96 0.42,1.9 1.38,2.09 h 0.05 c 0.11,0.03 0.22,0.04 0.33,0.04 0.87,0 1.62,-0.61 1.77,-1.47 l 10.9,-57.8 c 0.02,-0.23 0,-0.45 -0.07,-0.67 2.09,-0.54 3.55,-2.44 3.53,-4.61 V 420.9 c 0,-1.1 0.29,-2.58 2.29,-2.58 1.38,0 1.7,1.47 1.7,2.4 v 87.62 c 0,3.8 3.08,6.88 6.88,6.88 3.8,0 6.88,-3.08 6.88,-6.88 v -50.49 c -0.02,-1.05 0.82,-1.92 1.87,-1.94 0.06,0 0.13,0 0.19,0 v 0 c 1.74,0 1.92,1.38 1.92,1.93 v 50.49 c 0,3.8 3.08,6.88 6.88,6.88 3.8,0 6.88,-3.08 6.88,-6.88 v -87.62 c 0,-0.94 0.33,-2.4 1.7,-2.4 2.02,0 2.29,1.48 2.29,2.58 v 29.25 c 0,2.69 2.18,4.88 4.88,4.88 2.7,0 4.88,-2.18 4.88,-4.88 v -34.06 c -0.04,-8.5 -6.52,-15.58 -14.98,-16.37 z"
       id="path461" />
    <path
       class="b"
       d="m 230.6,470.29 8.98,-16.3 c 0,0 1.08,-2.34 1.08,-2.9 -0.03,-1.96 -1.65,-3.52 -3.61,-3.49 -1.18,0.02 -2.28,0.63 -2.92,1.62 h -0.04 c -0.28,0.24 -4.8,8.26 -6.29,9.76 -1.57,1.59 -2.99,1.39 -2.99,1.39 h -11.73 c 0,0 -1.42,0.2 -2.99,-1.39 -1.51,-1.49 -6.01,-9.52 -6.29,-9.76 l -0.03,0.03 c -1.08,-1.64 -3.28,-2.08 -4.92,-1 -0.96,0.63 -1.55,1.69 -1.59,2.84 0.05,0.53 0.17,1.05 0.35,1.55 l 9.74,17.66 c 0.33,0.73 0.53,1.52 0.57,2.33 v 3.48 l -5.11,18.85 h 5.1 v 15.52 h 0.07 c 0.03,2.66 2.19,4.8 4.85,4.8 2.64,0.02 4.81,-2.1 4.84,-4.74 v -14.96 c -0.14,-0.18 -0.2,-0.4 -0.17,-0.63 h 2.88 c 0.03,0.21 0,0.42 -0.05,0.63 v 14.96 c 0,2.69 2.18,4.88 4.88,4.88 2.7,0 4.88,-2.18 4.88,-4.88 v -15.59 h 5.01 l -5.01,-18.96 v -3.37 c 0.04,-0.8 0.21,-1.59 0.51,-2.33 z"
       id="path463" />
    <path
       class="b"
       d="m 218.95,454.29 c 5.35,0 9.68,-4.33 9.68,-9.67 0,-5.35 -4.33,-9.68 -9.67,-9.68 -5.34,0 -9.68,4.33 -9.68,9.67 0,5.34 4.31,9.68 9.65,9.69 h 0.02 z"
       id="path465" />
  </g>
</svg>
