<?xml version="1.0" encoding="UTF-8" standalone="no"?>
<!-- Created with Inkscape (http://www.inkscape.org/) -->

<svg
   version="1.1"
   id="svg106"
   width="316.58002"
   height="430.83002"
   viewBox="0 0 316.58002 430.83002"
   xml:space="preserve"
   xmlns="http://www.w3.org/2000/svg"
   xmlns:svg="http://www.w3.org/2000/svg"><defs
     id="defs110"><style
       id="style555">.b{fill:#fff;}</style></defs><g
     id="g112"
     transform="translate(-11.168546,-16.475643)"><path
       class="b"
       d="m 31.008546,63.285646 h -19.84 V 447.30565 H 286.48855 v -23.01 H 31.008546 Z M 52.428548,16.475643 V 400.48565 H 327.74855 V 16.475643 Z M 246.81855,53.765646 v 0 -1.59 h 1.59 l 28.56,-6.35 h 1.59 v 0.79 0 l -3.97,16.66 -2.38,12.69 v 0 0.79 h -1.59 l -7.93,-7.14 -72.99,73.790004 h -1.59 l -7.93,-7.93 v 0 l -22.22,-22.22 -47.61,47.61 h -1.59 l -7.93,-7.93 v -1.59 l 47.61,-47.61 v 0 l 7.93,-7.930004 c 0,0 0.79,-0.79 0.79,0 v 0 l 30.15,29.360004 61.89,-61.890004 2.38,-2.38 -4.76,-7.14 z m 17.46,36.5 V 229.11565 c 0,0.79 -0.79,2.38 -2.38,2.38 h -38.08 c -0.79,0 -2.38,-0.79 -2.38,-2.38 v -99.18 c 0,-1.59 0.79,-3.97 2.38,-4.76 l 37.29,-35.700004 c 2.38,-2.38 3.17,-0.79 3.17,0.79 z m -53.16,52.370004 v 87.28 c 0,0.79 -0.79,2.38 -2.38,2.38 h -38.08 c -0.79,0 -2.38,-0.79 -2.38,-2.38 v 0 -86.48 c 0,-1.59 0.79,-3.97 3.97,-0.79 l 16.66,16.66 h 1.59 l 18.25,-18.25 c 1.59,-2.38 2.38,0 2.38,1.59 z m -53.95,-6.35 v 92.83 c 0,0.79 -0.79,2.38 -2.38,2.38 h -38.08 c -0.79,0 -2.38,-0.79 -2.38,-2.38 v -53.16 c 0,-2.38 0.79,-3.97 2.38,-5.55 l 37.29,-35.7 c 2.38,-1.59 3.17,0.79 3.17,1.59 v 0 z m 129.33,215.02 c 0,0.79 -0.79,1.59 -2.38,1.59 H 95.278548 c -1.59,0 -2.38,-0.79 -2.38,-1.59 v -30.15 c 0,-0.79 0.79,-1.59 2.38,-1.59 H 284.10855 c 1.59,0 2.38,0.79 2.38,1.59 v 30.15 z m 0,-53.95 c 0,0.79 -0.79,1.59 -2.38,1.59 H 95.278548 c -0.79,0 -2.38,-0.79 -2.38,-1.59 v -30.15 c 0,-0.79 0.79,-1.59 2.38,-1.59 H 284.10855 c 1.59,0 2.38,0.79 2.38,1.59 v 30.15 z"
       id="path559" /></g></svg>
