<?xml version="1.0" encoding="UTF-8" standalone="no"?>
<svg
   id="a"
   viewBox="0 0 433.98001 431.44"
   version="1.1"
   width="433.98001"
   height="431.44"
   xmlns="http://www.w3.org/2000/svg"
   xmlns:svg="http://www.w3.org/2000/svg">
  <defs
     id="defs701">
    <style
       id="style699">.b{fill:#fff;}</style>
  </defs>
  <polygon
     class="b"
     points="364.75,479.72 355.27,479.72 355.27,501.83 275.05,501.83 275.05,480.35 265.57,480.35 265.57,501.83 185.35,501.83 185.35,480.35 175.87,480.35 175.87,501.83 97.54,501.83 97.54,427.92 117.12,427.92 117.12,418.44 97.54,418.44 97.54,338.22 117.12,338.22 117.12,328.74 97.54,328.74 96.91,249.15 117.12,248.52 117.12,239.04 96.91,239.67 96.91,159.45 117.12,159.45 117.12,149.97 96.91,149.97 96.91,84.28 83.01,84.28 83.65,515.72 85.54,515.72 85.54,515.72 513.83,515.09 516.99,515.09 516.99,501.19 453.82,501.83 453.82,479.72 444.34,479.72 444.34,501.83 364.75,501.83 "
     id="polygon703"
     transform="translate(-83.01,-84.28)" />
  <path
     class="b"
     d="M 77.7,317.74 177.51,217.3 c 14.53,13.27 36.64,12.63 51.17,-0.63 l 53.69,51.17 -57.48,58.75 -54.96,-55.59 -66.96,68.22 15.79,15.16 51.17,-51.8 54.96,55.59 73.91,-74.54 44.85,42.96 17.06,-18.32 c 11.37,6.32 25.9,2.53 32.85,-8.84 6.32,-11.37 2.53,-25.9 -8.84,-32.85 -11.37,-6.95 -25.9,-2.53 -32.85,8.84 -1.9,3.79 -3.16,7.58 -3.16,12 0,3.79 1.26,8.21 3.16,11.37 l -8.84,9.48 -36.01,-34.11 42.96,-43.59 1.9,2.53 10.74,10.74 0.63,0.63 c 0.63,0.63 1.9,0.63 2.53,0 0,0 0.63,-0.63 0.63,-1.26 v -0.63 l 6.32,-48.01 v -0.63 c 0,-0.63 0,-1.26 -0.63,-1.26 q -0.63,-0.63 -1.26,-0.63 h -0.63 l -47.38,6.32 v 0 q -0.63,0 -1.26,0.63 c -0.63,0.63 -0.63,1.9 0,2.53 v 0 l 0.63,0.63 10.11,10.74 2.53,2.53 -43.59,44.22 -54.96,-52.43 c 3.16,-5.69 4.42,-12 4.42,-18.32 0,-9.48 -3.16,-18.32 -9.48,-25.27 l 20.85,-21.48 16.42,15.79 c -1.26,3.16 -1.9,6.32 -1.9,9.48 0,13.27 10.74,24 24,24 13.26,0 24,-10.74 24,-24 0,-13.26 -10.74,-24 -24,-24 v 0 c -5.05,0 -10.11,1.9 -14.53,5.05 l -15.79,-15.16 94.12,-94.12 4.42,4.42 8.84,8.84 h 0.63 c 0.63,0.63 1.26,0.63 1.9,0 v 0 l 0.63,-0.63 v -0.63 l 5.69,-40.43 v 0 q 0,-0.63 -0.63,-1.26 c 0,0 -0.63,-0.63 -1.26,-0.63 h -0.63 l -39.8,5.05 v 0 q -0.63,0 -1.26,0.63 c -0.63,0.63 -0.63,1.26 0,1.9 v 0 l 0.63,0.63 8.84,8.84 3.79,3.79 -124.44,125.08 c -12,-6.95 -27.16,-6.95 -39.16,0.63 L 166.8,140.26 c 5.69,-9.48 5.69,-20.85 0,-30.32 l 20.85,-21.48 3.79,3.79 8.84,8.84 v 0 c 0.63,0.63 1.26,0.63 1.9,0 l 0.63,-0.63 v 0 l 5.05,-40.43 V 59.4 q 0,-0.63 -0.63,-1.26 c 0,0 -0.63,-0.63 -1.26,-0.63 v 0 l -39.8,5.05 v 0 q -0.63,0 -1.26,0.63 c -0.63,0.63 -0.63,1.26 0,1.9 v 0 l 0.63,0.63 8.84,8.84 4.42,4.42 -20.21,20.85 c -13.27,-9.48 -32.22,-6.32 -41.69,6.95 -9.48,13.27 -6.32,32.22 6.95,41.69 5.05,3.79 11.37,5.69 17.06,5.69 6.32,0 12,-1.9 17.06,-5.05 l 15.16,14.53 c -10.11,12.63 -12,29.69 -3.79,43.59 L 68.9,308.3 l 8.84,9.48 z m 295.63,-41.06 c 6.32,0 11.37,5.05 11.37,11.37 0,6.32 -5.05,11.37 -11.37,11.37 -6.32,0 -11.37,-5.05 -11.37,-11.37 0,-6.32 5.05,-11.37 11.37,-11.37 z M 291.84,155.4 c 6.32,0 11.37,5.05 11.37,11.37 0,6.32 -5.05,11.37 -11.37,11.37 -6.32,0 -11.37,-5.05 -11.37,-11.37 v 0 c -0.63,-5.69 5.05,-11.37 11.37,-11.37 z m -89.07,6.95 c 14.53,0 25.9,11.37 25.9,25.9 0,14.53 -11.37,25.9 -25.9,25.9 -14.53,0 -25.9,-11.37 -25.9,-25.9 v 0 c 0,-13.9 11.37,-25.27 25.9,-25.9 z M 141.5,142.14 c -9.48,0 -17.69,-7.58 -17.69,-17.69 0,-10.11 7.58,-17.69 17.69,-17.69 9.48,0 17.06,7.58 17.69,17.06 -0.63,10.11 -8.21,18.32 -17.69,18.32 z"
     id="path705" />
</svg>
