<?xml version="1.0" encoding="UTF-8"?><svg id="icons_only_layer" width="300px" height="300px" xmlns="http://www.w3.org/2000/svg" viewBox="0 0 1000 1000"><defs><style>.cls-1{fill:#fff;}</style></defs><path id="_Compound_Path_2" class="cls-1" d="M749.88,528.43l-118.88-68.61v-137.25c0-2.88-1.52-5.54-4-7l-122.9-71c-2.51-1.45-5.6-1.45-8.11,0l-122.99,70.98c-2.48,1.46-4.01,4.12-4,7v137.27l-118.88,68.61c-2.5,1.44-4.05,4.11-4.06,7v142c.01,2.89,1.56,5.56,4.06,7l122.91,71c2.51,1.44,5.6,1.44,8.11,0l118.86-68.67,118.84,68.61c2.51,1.44,5.6,1.44,8.11,0l122.93-71c2.5-1.44,4.05-4.11,4.06-7v-142c-.03-2.87-1.57-5.51-4.06-6.94Zm-258,134.92l-98.58-56.93,98.59-56.92v113.85Zm114.79-198.84l-98.58,56.89v-113.82l98.58,56.93Zm-114.79,56.9l-98.58-56.91,98.58-56.92v113.83Zm24.33,14l106.68-61.54,106.71,61.58-106.71,61.61-106.68-61.65Zm98.57-85l-98.57-56.93,98.57-56.91v113.84Zm-131-56.93l-98.59,56.93v-113.79l98.59,56.86Zm-114.79,340.82l-106.7-61.59v-123.21l106.7,61.65v123.15Zm16.21,0v-113.83l98.59,56.93-98.59,56.9Zm352.53-61.59l-106.74,61.59v-123.15l106.72-61.61,.02,123.17Z"/></svg>