<?xml version="1.0" encoding="UTF-8"?><svg id="icons_only_layer" width="300px" height="300px" xmlns="http://www.w3.org/2000/svg" viewBox="0 0 1000 1000"><defs><style>.cls-1{fill:#fff;}</style></defs><path id="_Path_2" class="cls-1" d="M694.16,366.17l-101.64,96.67c-3.83,3.81-5.8,6.62-5.8,14.52v271c.01,3.2,2.6,5.78,5.8,5.78h105c3.19,0,5.78-2.59,5.79-5.78V368.59c0-3.2-2.5-9-9.14-2.44"/><path id="_Path_3" class="cls-1" d="M401.34,492.17l-101.65,96.63c-3.82,3.82-5.8,6.62-5.8,14.51v145c.02,3.19,2.61,5.77,5.8,5.77h105c3.19,0,5.78-2.58,5.79-5.77v-253.76c0-3.21-2.53-9.06-9.14-2.43"/><path id="_Path_4" class="cls-1" d="M740.36,248.89c.05-.82-.27-1.63-.86-2.2-.51-.49-1.18-.78-1.88-.83h-1.39l-77.83,17.64-1.41,.15c-.57,.12-1.1,.39-1.52,.79-1.14,1.17-1.14,3.02,0,4.19l.88,.88,17.78,17.77-176.36,176.36-81.45-81.47c-.9-.92-2.36-.93-3.28-.04-.01,.01-.03,.03-.04,.04l-22.1,22.11h0l-130.59,130.58c-.9,.92-.9,2.4,0,3.32l22.13,22.12c.9,.91,2.37,.91,3.28,0,0,0,0,0,0,0l129-128.92,59.1,59.12c.06,.1,.12,.19,.19,.28l22.11,22.08c.89,.91,2.35,.93,3.27,.04,.01-.01,.03-.03,.04-.04l200.11-200.15,18.66,18.65c1.13,1.15,2.97,1.16,4.12,.03,.01-.01,.02-.02,.03-.03,.52-.51,.83-1.19,.85-1.92v-.24l17.09-79.45,.06-.86Z"/><path id="_Path_5" class="cls-1" d="M548.33,509.09l-49.18,49.58c-.93,.79-2.3,.73-3.17-.12l-44.55-45.38c-8.16-8.12-9.92-1.53-9.92,1.66v233.51c0,3.19,2.57,5.77,5.76,5.78h105c3.19-.01,5.76-2.59,5.77-5.78v-237.42c0-3.19-2.51-9.06-9.73-1.83"/></svg>