<?xml version="1.0" encoding="UTF-8"?><svg id="icons_only_layer" width="300px" height="300px" xmlns="http://www.w3.org/2000/svg" viewBox="0 0 1000 1000"><defs><style>.cls-1{fill:#fff;}</style></defs><polygon class="cls-1" points="438.32 405.37 258.98 301.81 258.98 636.81 438.32 690.92 438.32 405.37"/><polygon class="cls-1" points="458.05 406.05 458.05 691.04 638.55 636.77 638.55 301.82 458.05 406.05"/><path class="cls-1" d="M779.34,293.33c.25-11.72-9.04-21.42-20.75-21.68-11.72-.25-21.42,9.04-21.68,20.75,0,.31,0,.61,0,.92v22.85h42.43v-22.85Z"/><polygon class="cls-1" points="742.18 630.87 736.91 630.87 758.14 705.03 779.33 630.87 774.06 630.87 779.33 630.87 779.33 332.82 774.06 332.82 768.79 332.82 763.21 332.82 752.65 332.82 747.44 332.82 742.18 332.82 736.9 332.82 736.9 630.87 742.18 630.87"/><polygon class="cls-1" points="677.08 316.2 657.85 301.01 657.85 645.9 458.58 710.29 449.36 710.29 447.53 710.29 438.32 710.29 239.94 654.86 239.94 301.01 220.7 316.2 220.7 668.35 437.41 728.35 447.53 728.35 449.36 728.35 459.48 728.35 659.42 664.87 677.08 659.67 677.08 316.2"/></svg>