<?xml version="1.0" encoding="UTF-8"?><svg id="icons_only_layer" width="300px" height="300px" xmlns="http://www.w3.org/2000/svg" viewBox="0 0 1000 1000"><defs><style>.cls-1{fill:#fff;}</style></defs><path class="cls-1" d="M867.09,495.83c-26.35-36.91-145.53-184.45-367.09-184.45S159.32,458.93,132.93,495.83c-1.12,1.58-2.09,3-2.87,4.11,.78,1.19,1.75,2.55,2.87,4.15,26.39,36.97,145.53,184.52,367.07,184.52s340.74-147.55,367.09-184.48c1.15-1.6,2.1-3,2.85-4.15-.75-1.16-1.7-2.53-2.85-4.11m-490.64-91.2c2-2.93,8.63-11.29,9.43-12.35,1.71-2.2,5.1-2.65,7.47-3.07s5.49,.87,5.87,2.64c.38,1.77-.91,8.63-2.07,9.81-3.25,3.37-11.71,8.13-16.37,7.38-3.61-.55-5-3.34-4.33-4.41m-7.92,15.74c.35-.42,.67-.76,.8-.93,2.79-3.18,8.34-3.86,12.17-4.46s9,1.28,9.58,3.83c.58,2.55-9.63,7.2-11.51,9-5.33,4.91-13.67,14.91-18.55,16-1.34,.34-2.76,.19-4-.41,3.18-7.98,7.03-15.67,11.5-23m82.91,170.08c-3,11.8-6.5,16.05-9.48,19.77s-14,8.57-21,8.05-8-19.25-8-28.89c0-3.32-4.71,6.54-7.17-13.51-1.57-12.83-9.81,1.34-10.39-7.22s-4.7-6.84-9-12.18-9.68,.52-15.7,3.22-3.52,4.06-12,1.38c-.22-.07-.33-.13-.54-.21-8.07-19.01-12.22-39.45-12.22-60.1,0-5.21,.28-10.34,.77-15.4,.27-.51,.59-.99,.95-1.44,8.16-9.66,8-11.92,8-11.92l9-3.12s14.42,2.22,25.28,6.31c8.95,3.35,23,10.94,31.23,7.6,5.93-2.44,10.56-5.68,10-10.61-.66-6.19-5.54-7.66-11.44-3.49-2.17,1.54-6.81-9.33-10.45-8.77s4.5,12.76,1.42,13.28-9.31-12.74-10.37-14.89c-1.06-2.15-5.85-7.46-10.16-3.4-9.1,8.65-23.88,8.12-26.85,10.35-9,6.76-11.42-2.23-11.22-7.7,.36-1.25,.73-2.51,1.13-3.75,2.95-3.25,13.54-4.33,17.18-1.91,4,2.67,6.86-.68,8.42-2.3s1-4.15,0-6.27,2-3.72,4.06-4.27,8.95-5.37,11.7-7,17-3.33,23.43-.13c5.22,2.76,11.67,1.46,15.41-3.11,3.15-3.75,6.94-6.91,11.19-9.33,2.24-1-5.51-8.27-11.87-.39-6.36,7.88-9.63,8.56-12.63,8.56s-20.82-4.44-23-10.07,5.58-9.84,12.15-13c6.57-3.16,24.57-3.09,29.17-4.13,9.35-2.05,21.31-6.75,27.33-2.65,6.02,4.1-25.15,11.12-14.91,16.65,3.64,2,20.1-9.47,25.75-12.41,13.27-6.84-12.87-9.1-9.48-23,3.83-15.72-32.07-9.64-50-8.3,71.79-45.92,167.21-24.96,213.13,46.83,9.26,14.47,16.04,30.39,20.05,47.1,.09,2.41-.16,4.81-.75,7.15-1.4,5.56-12,10.34-18.07,1.39-1.56-2.26-8.18-8.51-8,2.18s10.4,11.79,.53,18.21-11.66,4.87-16.22,6.49-9,12.63-7.87,18.52,15.17,22,4.73,21.32c-2.45-.19-20.89-12.78-23.93-20.88-3.22-8.53-6.72-16.87-9.21-23.3s-9-8-14.54-4.27,1.53,7.51-2.42,15.55-6.76,15.19-12.55,8.56c-15.07-17.26-37-8.75-40.39-28-1.85-10.41-10.82-9.41-18.32-15.31s-11.73-9-13-4.81c-1.11,3.73,23.59,23.32,25.35,28.33,2.63,7.46-7.39,14-14.73,15.8s-10.52-4.11-17.72-11.61c-7.2-7.5-10.33-12.82-10.83-6.94-.72,8.49,6.83,21,14.15,25.62,6.25,3.95,13.25,5.74,11.22,12.16-2.03,6.42,0,2.8-7,9.72s-8.34,9.19-7.83,18.8c.51,9.61-2,10.19-3.51,18.2-1.51,8.01-5,1.08-8,12.83m165.61-61.51c5.18-.42,13,6.77,9.93,9.53s-10.81,1.74-14.72-1.32,2.45-8,4.79-8.21m-6.57-4.74c-1.66-.62-3.13-2.2-4.39-6s1.93-6,5-4.43,7.28,6.33,7.28,8.85-6.23,2.23-7.93,1.56m-68.11-.27c-3.05,2.72-10.85,1.72-14.75-1.32-3.9-3.04,2.46-8,4.78-8.21,5.19-.47,13,6.79,10,9.53m-63,30.65c-2.12,3.47-7.93,29.42-11.82,26.4s1.58-30.1,2.7-32.16c6.1-11.18,19.28-10.63,9.12,5.76m21,100.58c-14.68,0-29.28-2.09-43.37-6.21-2.27-1.79-3.04-4.89-1.87-7.54,4.77-12.45,19-17.33,30.22-18.41,25-2.44,57.92,16.25,63.15,13.23s15.83-16.77,31.35-16.19c10.6,.41,10.52,2.19,14.08,3.53-26.86,20.53-59.75,31.64-93.56,31.59m108.85-44.92c-1.67-.43-3.29-1.03-4.84-1.79-8.43-4.29-7.42,2.56-11.56,1s4.67-11.15-7.77-3-9.05-1.26-14.45-15,6.22-29.43,16-33c13.41-4.85,21.73-5.84,28-7.39,18.54-4.63,22.46-15.63,25.82-8.94,.64,1.25,1.25,2.45,1.81,3.57,1.5,3.18,2.3,6.64,2.34,10.15-7.8,20.45-19.86,39-35.38,54.44m42.28-77.91c-4.14-1.13-21.47-25.09-7.77-40.85,2.28-2.59-4.6-10.22-2.72-10.37,7.5-.58,11.48,4.07,13.45,10.77,.15,3,.27,5.94,.27,9,0,10.58-1.09,21.14-3.23,31.5"/></svg>