<?xml version="1.0" encoding="UTF-8"?><svg id="icons_only_layer" width="300px" height="300px" xmlns="http://www.w3.org/2000/svg" viewBox="0 0 1000 1000"><defs><style>.cls-1{fill:#fff;}</style></defs><path class="cls-1" d="M645.94,302.04s-8.41,11.17-6,22.06c2.41,10.89,14.88,17.36,14.88,17.36,0,0,8.41-11.17,6-22.05s-14.88-17.37-14.88-17.37"/><path class="cls-1" d="M632.22,365.88s8.41-11.18,6-22.06c-2.41-10.88-14.87-17.36-14.87-17.36,0,0-8.42,11.17-6,22.06,2.42,10.89,14.88,17.36,14.88,17.36"/><path class="cls-1" d="M666.8,353.92s8.88,9,19,8.06,17.61-11.31,17.61-11.31c0,0-8.87-9-19-8.07s-17.61,11.32-17.61,11.32"/><path class="cls-1" d="M681.36,306.04c-8.23,8.35-7.07,23.13-7.07,23.13,0,0,14.51,1.26,22.76-7.08s7.07-23.13,7.07-23.13c0,0-14.52-1.26-22.76,7.08"/><path class="cls-1" d="M663.2,387.13c10.08,1.2,19.56-7.46,19.56-7.46,0,0-6.87-10.63-16.96-11.78s-19.57,7.47-19.57,7.47c0,0,6.87,10.58,16.95,11.77"/><path class="cls-1" d="M672.2,562.27h-75.35c-5.89,0-10.66,4.77-10.66,10.66s4.77,10.66,10.66,10.66h75.35c5.89,0,10.66-4.77,10.66-10.66s-4.77-10.66-10.66-10.66"/><path class="cls-1" d="M672.2,679.78h-75.35c-5.89,0-10.66,4.77-10.66,10.66s4.77,10.66,10.66,10.66h75.35c5.89,0,10.66-4.77,10.66-10.66s-4.77-10.66-10.66-10.66"/><path class="cls-1" d="M333.31,536.39c-1.72-.54-3.46-.99-5.23-1.34,0,0,1.93,.6,5.23,1.34"/><path class="cls-1" d="M669.43,591.04h-69.83c-3.35,0-6.06,2.71-6.07,6.06v21.15l-45.58,5-66.59-1.52v-40.69c8.95-1.14,17.8-2.94,26.49-5.38,64.11-18.08,78.09-71.08,76.69-107.75-1.39-37.35,10.56-51.85,27.73-58.3,4.61-1.71,9.38-2.97,14.23-3.77,.19,9.17,2,19.84,6.15,32.54,1.53-.08,3-.21,4.55-.37-4.33-13-6.18-23.69-6.28-32.81,5.04-.64,10.13-.79,15.2-.46-5.13-2.98-9.97-6.43-14.47-10.3,2.88-17.68,13.42-28.54,24.27-39.65,6-6.11,12.13-12.42,17-19.94l-3.78-2.44c-4.6,7.14-10.63,13.29-16.44,19.24-10.58,10.83-21.27,21.89-24.89,39.45-3.87-3.49-7.54-7.18-11.01-11.06-15.81-17.72-36.16-4.71-65.17,22.31-29.01,27.02-65.54,27.93-101.2-8.55-47-48.16-88.08-47.88-116.22-45.15,19.25,8.2,26,26.19,35.73,71.91,10.21,48,36,69.68,71.19,72.67-19.59,6.93-20.56,18-46.81,36.12-20.51,14.14-49.35,9.67-61,7,21.46,6.7,46.89,29.21,69.64,37,13.42,4.58,27.37,7.43,41.51,8.51v38.94l-119.3-2.72v27.16l222.79-5.1,45.58,5v21.13c0,3.35,2.72,6.07,6.07,6.08h69.83c3.35-.01,6.07-2.73,6.08-6.08v-69.17c-.01-3.35-2.74-6.07-6.09-6.06Zm-214-8.52c5,.08,9.95-.07,14.94-.41v39.37l-14.94-.34v-38.62Z"/><path class="cls-1" d="M318.64,640.84c0,5.73-4,10.37-8.92,10.37h-5.37c-4.92,0-8.93-4.64-8.93-10.37v-18.8c0-5.73,4-10.37,8.93-10.37h5.37c4.92,0,8.92,4.64,8.92,10.37v18.8Z"/></svg>