<?xml version="1.0" encoding="UTF-8"?><svg id="icons_only_layer" width="300px" height="300px" xmlns="http://www.w3.org/2000/svg" viewBox="0 0 1000 1000"><defs><style>.cls-1{fill:#fff;}</style></defs><path class="cls-1" d="M728.37,233.9h-124.28c-.87,.01-1.57,.72-1.58,1.59v41.29c0,.87,.71,1.58,1.58,1.59h49.48l-54.95,55c-28.59-22.54-63.94-34.79-100.35-34.76-89.75,0-162.78,73-162.78,162.78,0,82.64,61.91,151,141.77,161.37v47.59h-49c-.87-.02-1.58,.67-1.6,1.54,0,.01,0,.02,0,.03v44.27c0,.87,.69,1.57,1.56,1.58,.01,0,.03,0,.04,0h49v46.75c0,.87,.69,1.57,1.56,1.58,0,0,.01,0,.02,0h44.24c.88,0,1.59-.7,1.6-1.58h0v-46.79h49c.87,0,1.57-.7,1.57-1.57,0,0,0,0,0-.01v-44.27c0-.87-.7-1.57-1.57-1.57h-49v-48.36c77.23-12.67,136.34-79.84,136.34-160.6,.03-33.53-10.36-66.25-29.73-93.62l54.18-54.21v46.22c.01,.88,.73,1.59,1.61,1.58h41.29c.88,0,1.6-.7,1.61-1.58v-124.22c0-.88-.73-1.6-1.61-1.59h0m-230.1,347.24c-66.17,0-119.82-53.65-119.82-119.82,0-66.17,53.65-119.82,119.82-119.82,66.17,0,119.82,53.65,119.82,119.82-.07,66.15-53.67,119.75-119.82,119.82"/><path class="cls-1" d="M572.68,412.17h-145.33c-.82-.03-1.53,.6-1.58,1.42v35.18c.03,.83,.73,1.47,1.56,1.44,0,0,.02,0,.02,0h145.33c.83,.06,1.55-.57,1.61-1.41,0-.01,0-.02,0-.03v-35.18c-.06-.83-.78-1.47-1.61-1.42"/><path class="cls-1" d="M572.68,474.99h-145.33c-.84-.02-1.54,.63-1.58,1.47v35.18c.04,.83,.75,1.46,1.58,1.42,0,0,0,0,0,0h145.33c.83,.06,1.55-.57,1.61-1.4,0,0,0-.01,0-.02v-35.18c-.04-.85-.76-1.5-1.61-1.47"/></svg>