<?xml version="1.0" encoding="UTF-8"?><svg id="icons_only_layer" width="300px" height="300px" xmlns="http://www.w3.org/2000/svg" viewBox="0 0 1000 1000"><defs><style>.cls-1{fill:#fff;}</style></defs><path class="cls-1" d="M748.26,474.02c0-70.23-55.87-127.6-125.47-130.14-23.94-67.82-98.33-103.4-166.15-79.46-37.14,13.11-66.35,42.32-79.46,79.46-69.59,2.54-125.44,59.92-125.44,130.14,0,40.14,18.55,78.04,50.26,102.66-3.4,11.75-5.13,23.93-5.14,36.16,0,71.78,58.43,130.21,130.26,130.21,26.24,.03,51.88-7.93,73.5-22.8,21.37,14.33,46.53,21.97,72.26,21.94,71.82,0,130.25-58.43,130.25-130.22,0-11.98-1.66-23.9-4.93-35.43,31.58-24.64,50.05-62.46,50.06-102.51m-144.26-86.79c0,52.14-38.59,95.3-88.68,102.76-.87-5.29-1.32-10.64-1.36-16,.08-51.47,37.77-95.15,88.68-102.76,.87,5.29,1.32,10.64,1.36,16m-103.53,299.23c-41.19-39.82-42.29-105.49-2.47-146.68,.49-.5,.98-1,1.47-1.49,41.19,39.8,42.31,105.45,2.52,146.63-.5,.52-1.01,1.03-1.52,1.54m-103.14-315.22c50.09,7.45,88.67,50.62,88.67,102.77-.04,5.36-.5,10.71-1.37,16-50.07-7.48-88.63-50.64-88.63-102.78,.04-5.36,.49-10.71,1.36-16m77.53,149.3c-25.48,51.25-87.69,72.13-138.93,46.65-.59-.29-1.17-.59-1.75-.89,25.48-51.25,87.69-72.13,138.93-46.65,.59,.29,1.17,.59,1.75,.89m49.87-.7c50.69-26.62,113.36-7.12,139.99,43.57,.47,.9,.94,1.81,1.38,2.73-50.69,26.62-113.36,7.12-139.99-43.57-.47-.9-.94-1.81-1.38-2.73m-24.76-236.61c41.39,.05,78.82,24.6,95.35,62.54-41.78,7.47-77.33,34.76-95.35,73.19-18-38.44-53.56-65.74-95.35-73.19,16.53-37.94,53.96-62.49,95.35-62.54m-222,190.79c.07-53.11,40.08-97.66,92.87-103.42-5.54,42.14,9.95,84.31,41.43,112.86-42.34,4.89-79.63,30.16-99.87,67.67-21.9-19.65-34.42-47.69-34.43-77.11m45.09,138.82c0-7.25,.76-14.47,2.27-21.56,38.01,18.38,82.57,17.16,119.52-3.27-7.83,41.53,5.07,84.27,34.57,114.53-49.46,29.01-113.08,12.43-142.09-37.03-9.37-15.97-14.29-34.15-14.27-52.67m353.82-.87c.08,57.35-46.34,103.92-103.7,104-18.1,.03-35.9-4.68-51.62-13.65,29.02-30.47,41.45-73.12,33.34-114.41,37.03,20.57,81.77,21.79,119.87,3.27,1.4,6.84,2.11,13.81,2.11,20.79m-88.42-129.28c26.62-24.6,41.76-59.2,41.75-95.45-.01-5.56-.38-11.12-1.09-16.64,57.02,6.04,98.35,57.17,92.31,114.2-2.69,25.41-14.66,48.93-33.61,66.06-20.02-37.57-57.1-63.01-99.36-68.17"/></svg>