<?xml version="1.0" encoding="UTF-8"?><svg id="icons_only_layer" width="300px" height="300px" xmlns="http://www.w3.org/2000/svg" viewBox="0 0 1000 1000"><defs><style>.cls-1{fill:#fff;}</style></defs><path class="cls-1" d="M419.19,538.61c1.22,0,2.21,.99,2.21,2.21h0v72.82c0,1.22-.97,2.2-2.19,2.21h-29.48c-1.22,0-2.21-.98-2.22-2.2,0,0,0,0,0-.01v-72.82c0-1.22,.99-2.21,2.21-2.21h29.47Z"/><path class="cls-1" d="M742.8,647.11H257.19c-1.24,.03-2.23,1.05-2.22,2.29v29.68c.02,1.21,1.01,2.19,2.22,2.18h485.61c1.21,0,2.2-.97,2.23-2.18v-29.68c0-1.24-.99-2.25-2.23-2.29"/><path class="cls-1" d="M742.8,706.1H257.19c-1.2,.02-2.17,.99-2.19,2.19v29.77c.02,1.21,1.01,2.18,2.22,2.19h485.58c1.21-.01,2.2-.98,2.23-2.19v-29.77c-.03-1.21-1.02-2.18-2.23-2.19"/><path class="cls-1" d="M650.39,458.01c-6.06-4.75-22.26-15.83-42-15.83-14.12,0-27.25,5.56-39,16.57-.82,.78-1.29,1.87-1.3,3v2.74c-.06,1.26,.45,2.48,1.39,3.32,.95,.8,2.22,1.09,3.42,.8,.31-.05,.61-.13,.91-.23,.91-.33,1.74-.86,2.43-1.54,2.54-1.71,9.5-4,19.45-4s30.5,2.76,50,21l.45,.4c1.11,1.13,2.63,1.77,4.22,1.76,1.55,0,3.03-.61,4.11-1.72l.4-.41c19.64-18.24,39.82-21,50.1-21s17,2.34,19.5,4c.76,.74,1.68,1.3,2.69,1.64,.93,.22,1.91,.22,2.84-.02,1.8-.49,3.05-2.13,3.06-4v-2.34c-.01-1.13-.48-2.22-1.3-3-11.86-11.3-25.13-17-39.47-17-19.57,0-35.69,10.91-41.93,15.85"/><path class="cls-1" d="M620.26,264.49c-1.04,.51-1.81,1.44-2.12,2.56l-.49,1.62c-.38,1.25-.14,2.6,.64,3.65,.7,.97,1.8,1.57,3,1.64,.2,.04,.41,.04,.61,0,.82-.01,1.62-.22,2.34-.6,.98-.23,1.99-.34,3-.33,2.17,0,21.75,.66,34.69,22.66l.17,.32c.64,1.22,1.77,2.12,3.1,2.48,.5,.15,1.02,.23,1.55,.24,.85,0,1.69-.2,2.45-.6l.32-.16c6.7-3.45,14.12-5.29,21.66-5.36,12.27,0,20.28,5,22.15,7.09,.39,.7,.92,1.31,1.57,1.79,.51,.29,1.03,.55,1.58,.76,.24,.06,.48,.09,.72,.1,.14,.02,.29,.02,.43,0,.67,0,1.33-.17,1.93-.48,1-.51,1.74-1.41,2.06-2.49l.41-1.43c.12-.38,.18-.78,.17-1.18,0-.74-.19-1.46-.57-2.09-9.43-16.37-23.11-19.79-32.94-19.79-5.97,.07-11.89,1.18-17.48,3.28-4.44-6-15.69-18.35-32.75-18.35-6.34,.09-12.58,1.66-18.2,4.6"/><path class="cls-1" d="M517.65,339.18l.14,2.19c.14,2.29,2.1,4.03,4.39,3.89,.28-.02,.55-.06,.82-.13,.24-.06,.48-.13,.71-.22,.82-.34,1.54-.87,2.1-1.55,2.06-1.49,8.71-4.21,18.52-4.21s23.77,2.52,38.39,14.53l.34,.35c1.04,.9,2.37,1.4,3.75,1.41h.36c1.46-.1,2.82-.75,3.81-1.83l.32-.37c16.19-17.13,33.62-19.67,42.57-19.67,6.38,0,10.9,1.31,12.66,2.31,.74,.62,1.6,1.07,2.53,1.31,.93,.23,1.9,.19,2.8-.13,1.75-.62,2.87-2.32,2.75-4.17l-.11-1.9c-.07-1.12-.6-2.17-1.46-2.89-9.66-8.13-20.09-12.22-31.06-12.22-17.08,0-30.71,10.08-36.35,15-5.16-3.52-17.7-10.76-32.4-10.76-12.92,0-24.5,5.37-34.45,15.92-.78,.84-1.18,1.96-1.13,3.11"/><path class="cls-1" d="M271.91,378.16c-.01-29.08,23.55-52.66,52.63-52.67h.02c1.14,0,2.25,.1,3.37,.17,2.91-39.21,37.06-68.63,76.27-65.72,39.21,2.91,68.63,37.06,65.72,76.27-.67,9-3.04,17.78-6.99,25.89,42.92,9.47,70.03,51.94,60.56,94.86-8.06,36.51-40.45,62.49-77.84,62.43-3.21,0-106.23-.62-106.23-.62h0c-31.09,.05-56.33-25.12-56.38-56.2-.02-14.41,5.48-28.27,15.38-38.75-16.39-9.36-26.51-26.79-26.51-45.66Z"/></svg>