<?xml version="1.0" encoding="UTF-8"?><svg id="icons_only_layer" width="300px" height="300px" xmlns="http://www.w3.org/2000/svg" viewBox="0 0 1000 1000"><defs><style>.cls-1{fill:#fff;}</style></defs><path class="cls-1" d="M787.52,364.32c.01-15.28,12.41-27.66,27.69-27.65,15.28,.01,27.66,12.41,27.65,27.69-.01,15.26-12.38,27.63-27.64,27.65-15.29,0-27.69-12.4-27.7-27.69"/><path class="cls-1" d="M847.54,402.68c18.99,1.75,33.52,17.7,33.5,36.77v76.78c0,5.93-4.8,10.73-10.73,10.73s-10.73-4.8-10.73-10.73v-65.95c0-2.48-.71-5.82-5.23-5.82-3.13,0-3.78,3.31-3.89,5.42v197.54c0,8.52-6.92,15.42-15.45,15.41-8.51,0-15.41-6.9-15.41-15.41v-113.83c0-1.26-.46-4.52-4.38-4.52h0c-3.93,0-4.41,3.26-4.45,4.52v113.83c.22,8.51-6.51,15.59-15.02,15.81-8.51,.22-15.59-6.51-15.81-15.02,0-.26,0-.52,0-.78v-197.54c-.1-2.11-.78-5.42-3.88-5.42-4.54,0-5.23,3.34-5.23,5.82v65.95c-.26,5.92-5.26,10.51-11.18,10.26-5.56-.24-10.02-4.69-10.26-10.26v-76.78c0-19.09,14.54-35.03,33.55-36.77,.66-.1,1.33-.16,2-.17h60.45c.71,.01,1.41,.07,2.11,.17"/><path class="cls-1" d="M622.89,378.86c0-14.48-11.74-26.21-26.22-26.2-14.48,0-26.21,11.74-26.2,26.22s11.74,26.21,26.22,26.2h.01c14.47-.01,26.2-11.75,26.19-26.22"/><path class="cls-1" d="M543.87,438.23l-21.79,71s-3.88,13,7.15,16.25,14.31-9.44,14.31-9.44l17.57-59.21s1-4.56,4.38-3.57c3.38,.99,2.14,5.85,2.14,5.85l-30.58,111h28.44v79.47c.2,7.54,6.48,13.49,14.02,13.29,7.25-.2,13.09-6.03,13.29-13.29v-79.56h7.76v79.47c.2,7.55,6.49,13.5,14.03,13.3,7.26-.2,13.1-6.04,13.3-13.3v-79.47h28.43l-30.56-111s-1.29-4.79,2.13-5.79,4.38,3.57,4.38,3.57l17.57,59.21s3.34,12.69,14.3,9.44,7.15-16.22,7.15-16.22l-21.79-71s-7.78-20.51-25-20.51h-55.58c-17.24,0-25,20.51-25,20.51"/><path class="cls-1" d="M465.88,378.86c0-14.48-11.74-26.21-26.22-26.2-14.48,0-26.21,11.74-26.2,26.22,0,14.48,11.74,26.21,26.22,26.2h0c14.47-.01,26.2-11.75,26.2-26.22"/><path class="cls-1" d="M386.85,438.23l-21.78,71s-3.9,13,7.14,16.25,14.31-9.44,14.31-9.44l17.57-59.21s.95-4.56,4.38-3.57c3.43,.99,2.13,5.85,2.13,5.85l-30.57,111h28.44v79.47c0,7.54,6.12,13.66,13.66,13.66s13.66-6.12,13.66-13.66h0v-79.56h7.76v79.47c.2,7.54,6.48,13.49,14.02,13.29,7.25-.2,13.09-6.03,13.29-13.29v-79.47h28.45l-30.56-111s-1.3-4.87,2.11-5.85,4.39,3.57,4.39,3.57l17.56,59.21s3.34,12.69,14.31,9.44c10.97-3.25,7.14-16.16,7.14-16.16l-21.79-71s-7.77-20.51-25-20.51h-55.57c-17.23,0-25.05,20.51-25.05,20.51"/><path class="cls-1" d="M710.93,525.58c12.05,0,21.82-9.77,21.82-21.82,0-12.05-9.77-21.82-21.82-21.82s-21.81,9.76-21.82,21.8c-.02,12.04,9.72,21.82,21.76,21.84h.06"/><path class="cls-1" d="M658.62,593.36c-1.07,2.55-1.94,8,3.18,10.32,6,2.76,9.35-3,9.35-3l11.86-37.83s2.06-2.53,2.06,.09v89.05h.05c.18,6.18,5.35,11.05,11.53,10.86,5.92-.18,10.68-4.94,10.86-10.86v-35.19s-.65-5,3.36-5,3.38,5,3.38,5v35.15c0,6.2,5.02,11.22,11.22,11.22s11.22-5.02,11.22-11.22v-89.05c0-2.62,1.38-.75,1.38-.75l9.3,25.9s4,11.57,5.28,12.08c4.21,1.75,9.05-.24,10.8-4.45,0,0,0-.01,0-.02,1.13-2.64,.8-5.67-.88-8l.08-.08c-.27-.84-13.9-34.26-15.5-38.95-4.92-14.37-13.88-14.24-22.5-14.48-8.62-.24-13.79,0-13.79,0,0,0-5.51-.22-16.9,.11-11.39,.33-15,6.19-27.51,38.46-1.79,4.65-7.84,19.68-7.92,20.58l.08,.06Z"/><path class="cls-1" d="M204.05,392.01c15.29,.02,27.7-12.37,27.72-27.66,.02-15.29-12.37-27.7-27.66-27.72-15.29-.02-27.7,12.37-27.72,27.66,0,0,0,.02,0,.03,.02,15.27,12.39,27.66,27.66,27.69Z"/><path class="cls-1" d="M236.61,402.54c-.73-.15-1.47-.25-2.22-.31h-60.5c-.67,.05-1.34,.16-2,.31-19.02,1.81-33.54,17.8-33.5,36.91v76.78c-.03,3.95,2.13,7.59,5.61,9.46-.16,.3-.28,.61-.36,.94l-24.6,130.3c-.44,2.16,.95,4.28,3.12,4.72,.03,0,.07,.01,.1,.02,.25,.05,.5,.07,.75,.07,1.96,0,3.64-1.38,4-3.31l24.58-130.3c.05-.51,0-1.02-.15-1.51,4.72-1.23,8-5.51,7.95-10.39v-65.95c0-2.48,.65-5.82,5.17-5.82,3.12,0,3.83,3.31,3.83,5.42v197.54c0,8.56,6.94,15.5,15.5,15.5s15.5-6.94,15.5-15.5v-113.83c-.04-2.37,1.85-4.33,4.22-4.37,.15,0,.29,0,.44,.01h0c3.93,0,4.33,3.1,4.33,4.36v113.83c0,8.56,6.94,15.5,15.5,15.5s15.5-6.94,15.5-15.5v-197.54c0-2.11,.74-5.42,3.83-5.42,4.55,0,5.17,3.34,5.17,5.82v65.95c0,6.08,4.92,11,11,11s11-4.92,11-11v-76.78c-.09-19.16-14.7-35.12-33.77-36.91Z"/><path class="cls-1" d="M343.55,561.64l20.25-36.75s2.44-5.28,2.44-6.54c-.07-4.42-3.71-7.94-8.13-7.87-2.67,.04-5.14,1.42-6.59,3.66h-.09c-.64,.55-10.83,18.63-14.19,22-3.55,3.59-6.74,3.14-6.74,3.14h-26.44s-3.2,.45-6.74-3.14c-3.4-3.36-13.54-21.47-14.19-22l-.07,.06c-2.44-3.69-7.4-4.7-11.08-2.26-2.16,1.43-3.5,3.81-3.59,6.4,.11,1.19,.38,2.36,.78,3.49l21.95,39.81c.75,1.65,1.19,3.43,1.29,5.25v7.84l-11.52,42.5h11.5v35h.15c.06,6,4.94,10.83,10.94,10.83,5.96,.06,10.84-4.73,10.91-10.69v-33.73c-.32-.4-.46-.91-.38-1.41h6.5c.06,.47,.02,.95-.12,1.41v33.73c0,6.08,4.92,11,11,11s11-4.92,11-11v-35.14h11.29l-11.29-42.75v-7.59c.09-1.8,.48-3.58,1.16-5.25Z"/><path class="cls-1" d="M317.27,525.58c12.05,0,21.82-9.76,21.83-21.81s-9.76-21.82-21.81-21.83c-12.05,0-21.82,9.75-21.83,21.8-.02,12.04,9.72,21.82,21.76,21.84,.02,0,.03,0,.05,0Z"/></svg>