<?xml version="1.0" encoding="UTF-8"?><svg id="icons_only_layer" width="300px" height="300px" xmlns="http://www.w3.org/2000/svg" viewBox="0 0 1000 1000"><defs><style>.cls-1{fill:#fff;}</style></defs><g><path class="cls-1" d="M592.3,529.05h-184.62c-1.17,.08-2.06,1.07-2,2.24v55.49c-.06,1.17,.83,2.17,2,2.25h184.62c1.17-.08,2.06-1.08,2-2.25v-55.49c.06-1.17-.83-2.16-2-2.24"/><path class="cls-1" d="M592.3,410.98h-184.62c-1.17,.08-2.06,1.07-2,2.24v55.49c-.07,1.17,.83,2.18,2,2.25h184.62c1.17-.07,2.07-1.08,2-2.25v-55.49c.06-1.17-.83-2.16-2-2.24"/></g><g><path class="cls-1" d="M589.7,327.11l-88.62-88.61c-.6-.59-1.56-.59-2.16,0l-88.62,88.61c-.6,.6-.59,1.57,0,2.16,.29,.28,.67,.45,1.08,.45h177.24c.84,0,1.53-.69,1.53-1.53,0-.4-.16-.79-.45-1.08Z"/><path class="cls-1" d="M672.9,589.71l88.62-88.62c.6-.6,.6-1.56,0-2.16h0s-88.62-88.63-88.62-88.63c-.6-.6-1.57-.59-2.16,0-.28,.29-.45,.67-.45,1.08v177.25c0,.84,.69,1.53,1.53,1.53,.4,0,.79-.16,1.08-.45Z"/><path class="cls-1" d="M410.3,672.91l88.62,88.59c.59,.6,1.55,.6,2.15,.01,0,0,0,0,.01-.01l88.62-88.62c.6-.59,.61-1.56,.02-2.16-.29-.29-.68-.46-1.1-.46h-177.24c-.84-.02-1.55,.65-1.57,1.49-.01,.44,.17,.86,.49,1.16Z"/><path class="cls-1" d="M327.1,410.3l-88.62,88.62c-.6,.6-.6,1.56,0,2.16,0,0,0,0,0,0l88.62,88.62c.6,.6,1.57,.59,2.16,0,.28-.29,.45-.67,.45-1.08v-177.25c0-.84-.69-1.53-1.53-1.53-.4,0-.79,.16-1.08,.45Z"/></g></svg>