<?xml version="1.0" encoding="UTF-8"?><svg id="icons_only_layer" width="300px" height="300px" xmlns="http://www.w3.org/2000/svg" viewBox="0 0 1000 1000"><defs><style>.cls-1{fill:#fff;}</style></defs><path id="_Path_4" class="cls-1" d="M778.55,363.73c-40.78-32.21-89.68-35.68-108.81-35.68-10.09,0-19.43,.9-26.27,2.53l-2.68,.62c-25.83,6.1-69.06,16.31-119.39,78.77l-1.48,1.83c-.8,1.1-1.24,2.42-1.26,3.78,0,1.16,.31,2.3,.89,3.31l1.14,1.87c8.31,13.9,15.21,25.97,20.7,36.21,1.68,3.27,5.69,4.55,8.96,2.87,.67-.35,1.28-.81,1.8-1.36,.35-.46,.71-.95,1-1.32,43.42-60.11,77.48-68.11,100.02-73.44l2.83-.67c4.55-.87,9.17-1.27,13.8-1.17,10.48,0,46.91,1.74,75.33,24.18,25.29,20,38.11,51.84,38.11,94.75,0,71.92-34.79,100-64,110.84-11.42,4.21-23.51,6.34-35.68,6.28-18.53-.1-36.81-4.26-53.56-12.19l-2.09-1c-25.11-10.9-62.6-33.63-98.05-104.81-72.66-146-133.7-159.78-174.12-168.93l-2.12-.47c-3.1-.71-11.84-2.34-26-2.34-23.4,0-68.42,4.6-107,35.4-26.34,21-57.76,61.83-57.76,137,0,45.77,9.43,76,33.6,107.79,4.54,6.2,46.65,60.58,127.5,60.58,12.39-.04,24.75-1.25,36.92-3.62,14.76-2.82,37.54-10.12,63-28.78l21.25,19.18c2.54,2.14,6.3,1.97,8.63-.4,1.02-1.08,1.57-2.52,1.53-4l16.44-101.28v-1.18c-.01-1.69-.74-3.29-2-4.42-1.15-1.07-2.69-1.63-4.26-1.57h0l-98.66,27.16-1.88,.31c-1.21,.25-2.31,.89-3.13,1.81-2.28,2.48-2.12,6.34,.36,8.62,.02,.02,.04,.03,.06,.05l20.43,18.48c-10.74,6.59-21.48,11-31.92,13-8.62,1.67-17.38,2.53-26.16,2.56-55.87,0-83.36-36.67-84.49-38.22l-.55-.76c-17-22.33-22.74-41.34-22.74-75.34,0-43.06,12.6-75,37.45-94.8,27.65-22.06,63.23-23.78,73.49-23.78,4.69-.08,9.38,.31,14,1.17l2.18,.49c32.26,7.31,76.44,17.31,137.7,140.35,32.35,65,72.92,107.44,123.91,129.84,5.93,3,37.56,18.11,78.1,18.11,18.6,.06,37.06-3.21,54.5-9.67,29.78-11.11,99.08-49.1,99.08-161.42-.03-75.08-31.91-116-58.65-137.12Z"/></svg>