<?xml version="1.0" encoding="UTF-8"?><svg id="icons_only_layer" width="300px" height="300px" xmlns="http://www.w3.org/2000/svg" viewBox="0 0 1000 1000"><defs><style>.cls-1{fill:#fff;}</style></defs><path id="_Path_3" class="cls-1" d="M413.1,708.67v14.07c-.03,.1-.04,.21-.05,.31,0,.11,.02,.22,.05,.33,.15,3.49,2.99,6.26,6.48,6.32h165.58c3.6-.07,6.48-3,6.5-6.6h0s0-.03,0-.05v-15.96c92.86-30.44,162.43-105.7,177.73-197.42,0-.2,.06-.38,.09-.55,.05-.3,.08-.61,.09-.92,0-3.68-2.97-6.66-6.65-6.67H237.12c-3.68-.01-6.68,2.97-6.69,6.65,0,0,0,.01,0,.02l.35,3c16.07,92.59,87.54,168.27,182.32,197.47"/><path id="_Path_4" class="cls-1" d="M591.47,277.15c-2.17,3.08-53,76.21,1.13,135.34,24.81,27.14,22.66,51.08,15.58,67.25h34.7c7-23.87,4.12-53.82-24-84.6-39.86-43.58,.51-102.47,1.12-103.38,4.76-6.72,2.21-15.38-5.63-19.42s-18.07-1.87-22.85,4.81"/><path id="_Path_5" class="cls-1" d="M503.59,479.74h34.71c7-23.88,4.11-53.82-24.06-84.6-39.88-43.58,.46-102.45,1.1-103.41,4.73-6.69,2.23-15.34-5.64-19.39-7.87-4.05-18.06-1.88-22.82,4.81-2.18,3.07-53,76.21,1.13,135.34,24.81,27.14,22.64,51.09,15.58,67.25"/><path id="_Path_6" class="cls-1" d="M382.27,277.15c-2.2,3.08-53,76.21,1.12,135.34,24.82,27.15,22.67,51.09,15.6,67.25h34.7c7-23.86,4.12-53.81-24.08-84.6-39.87-43.58,.5-102.47,1.14-103.4,4.71-6.7,2.2-15.36-5.67-19.4-7.87-4.04-18.05-1.88-22.81,4.81"/></svg>