<?xml version="1.0" encoding="UTF-8"?><svg id="icons_only_layer" width="300px" height="300px" xmlns="http://www.w3.org/2000/svg" viewBox="0 0 1000 1000"><defs><style>.cls-1{fill:#fff;}</style></defs><path id="_Path_3" class="cls-1" d="M835.26,513.66c0-28.14-18-51-45.4-51-13.67,0-30.17,15-39.13,24.19-9-9.23-24.36-24.21-38-24.21-27.34,0-46.51,22.81-46.51,51-.04,13.43,5.16,26.35,14.51,36h0l70.1,70.23,70-70.15-.06-.05c9.34-9.66,14.54-22.58,14.49-36.01Z"/><g id="_Group_"><path id="_Path_4" class="cls-1" d="M536.81,734.54h-.72c-5.33-.32-9.74-4.27-10.63-9.54l-35.61-207.41-53.94,100c-3.02,5.59-10,7.68-15.6,4.66-3.21-1.73-5.4-4.88-5.92-8.49l-22.9-160.05-41.89,94.1c-1.85,4.16-5.97,6.84-10.52,6.85H176.25c-6.35-.37-11.2-5.83-10.82-12.18,.34-5.83,4.99-10.48,10.82-10.82h155.35l55.11-123.77c2.58-5.81,9.38-8.43,15.19-5.85,3.61,1.6,6.15,4.94,6.72,8.85l23.61,165,53.19-98.63c3.03-5.59,10.02-7.67,15.62-4.64,3.1,1.68,5.26,4.69,5.86,8.16l33,192.07,120.15-399.19c1.84-6.09,8.27-9.54,14.36-7.7,3.08,.93,5.64,3.11,7.04,6.02l63.23,131.09c2.87,5.67,.6,12.6-5.08,15.47-5.67,2.87-12.6,.6-15.47-5.08-.07-.13-.13-.26-.19-.39l-50.38-104.41-125.75,417.68c-1.46,4.86-5.93,8.2-11.01,8.2Z"/></g></svg>