<?xml version="1.0" encoding="UTF-8"?><svg id="icons_only_layer" width="300px" height="300px" xmlns="http://www.w3.org/2000/svg" viewBox="0 0 1000 1000"><defs><style>.cls-1{fill:#fff;}</style></defs><path class="cls-1" d="M769.58,603.63c-12.58-17-93.88-120.62-207.86-120.62-99,0-204.85,89.76-204.85,89.76,0,0-39.77-81.4-121.13-89.22-.47,0-1-.11-1.52-.11h-.51c-1.7,.1-3.29,1.75-3.1,3.22,.24,1.07,.67,2.09,1.27,3,10.49,17.35,37.25,66.9,37.25,116.35s-26.92,99.3-37.31,116.63l-.71,1.1c-.32,.52-.5,1.11-.5,1.72,.01,1.69,1.32,3.08,3,3.2l.88-.07c.29,.01,.57-.01,.85-.08,81.61-7.6,121.53-89.25,121.53-89.25,0,0,105.88,89.77,204.85,89.77,114,0,195.27-103.64,207.86-120.61,.34-.46,.62-.86,.87-1.16,.17-.4,.26-.82,.27-1.25,0-.43-.1-.85-.27-1.24-.25-.35-.53-.75-.87-1.17m-144.48,15.53c-18.37-.02-33.24-14.93-33.22-33.3,.02-18.37,14.93-33.24,33.3-33.22,18.35,.02,33.21,14.9,33.22,33.25,0,18.38-14.91,33.28-33.29,33.27h-.01"/><path class="cls-1" d="M233.18,288.18c-.21-.07-.42-.11-.63-.14-1.82,.01-3.28,1.49-3.27,3.31h0v22.66c-.02,.88,.33,1.73,.95,2.35,55,47.8,107.11,3,119.17-8.83,.22-.36,.52-.67,.86-.92,.53-.37,1.16-.57,1.81-.59,.82,0,1.62,.31,2.21,.88,.04,.06,.1,.1,.16,.14,62.15,59.3,127.31,11.27,140.87,0l1.33-1.22c.39-.17,.81-.26,1.24-.25,.44-.01,.88,.07,1.29,.25l1.35,1.22c13.55,11.27,78.71,59.3,140.85,0,.04-.04,.08-.09,.12-.14,.6-.57,1.39-.88,2.21-.88,.65,.01,1.28,.22,1.81,.59,.36,.25,.66,.56,.91,.92,12.05,11.84,64.09,56.63,119.15,8.83,.62-.63,.96-1.47,.95-2.35v-22.66c.03-1.79-1.39-3.28-3.19-3.31-.01,0-.03,0-.04,0-.24,.02-.47,.07-.7,.14-.51,.29-1,.57-1.65,.86-16.92,8.47-69.4,28.63-117-16.44-.45-.41-.92-.83-1.39-1.32-.44-.2-.91-.3-1.39-.3-.34,.02-.67,.07-1,.15-.67,.26-1.24,.71-1.66,1.29-14.2,10.82-79.36,54.94-137.39,.81l-.85-.83c-.64-.61-1.48-.96-2.36-1-.85,.04-1.66,.4-2.27,1l-.9,.83c-58,54.13-123.24,10-137.42-.81-.4-.58-.96-1.03-1.61-1.29-.33-.07-.66-.12-1-.15-.47,.01-.94,.11-1.37,.3-.43,.47-.9,.91-1.39,1.32-47.63,45.07-100.1,24.91-117,16.44-.59-.29-1.16-.57-1.67-.86"/><path class="cls-1" d="M349.4,390.09c.23-.35,.53-.65,.87-.9,.53-.38,1.15-.59,1.8-.62,.83,0,1.63,.33,2.22,.91,.04,.06,.09,.1,.15,.14,62.13,59.23,127.31,11.22,140.87,0l1.33-1.26c.4-.15,.82-.22,1.24-.21,.45-.01,.89,.06,1.31,.21l1.33,1.26c13.55,11.22,78.7,59.23,140.86,0,0,0,.07-.08,.11-.14,.59-.58,1.38-.91,2.21-.91,.65,.02,1.28,.24,1.8,.62,.36,.24,.67,.55,.92,.9,12,11.85,64.08,56.65,119.15,8.8,.63-.59,.99-1.42,1-2.29v-22.75c0-1.79-1.44-3.24-3.23-3.25,0,0-.01,0-.02,0-.24,.02-.47,.07-.7,.13l-1.65,.83c-16.91,8.48-69.42,28.59-117-16.42l-1.38-1.3c-.43-.24-.91-.35-1.4-.33-.35,0-.69,.08-1,.25-.69,.18-1.28,.62-1.66,1.22-14.18,10.8-79.36,54.93-137.4,.8l-.85-.85c-.64-.6-1.48-.92-2.35-.91-.85,0-1.66,.32-2.27,.91l-.9,.85c-58,54.13-123.24,10-137.42-.8-.36-.6-.94-1.04-1.61-1.22-.31-.16-.65-.25-1-.25-.47-.01-.94,.1-1.35,.33-.45,.45-.93,.88-1.42,1.3-47.63,45-100.09,24.9-117,16.42l-1.67-.83c-.2-.06-.41-.1-.62-.13-1.8-.01-3.27,1.44-3.28,3.24h0v22.76c-.01,.86,.33,1.69,.95,2.29,55,47.85,107.12,3,119.17-8.8"/></svg>