<?xml version="1.0" encoding="UTF-8"?><svg id="icons_only_layer" width="300px" height="300px" xmlns="http://www.w3.org/2000/svg" viewBox="0 0 1000 1000"><defs><style>.cls-1{fill:#fff;}</style></defs><g><path class="cls-1" d="M165,613.2h150.38c2.03,.01,3.68-1.62,3.69-3.65,0-.93-.34-1.83-.97-2.51l-.21-.22-74.84-96.82-.73-.81c-.7-.77-1.68-1.2-2.72-1.2-.89,.02-1.75,.35-2.42,.95l-.45,.52-.71,.79-73,95.81-1.12,1.37c-.41,.61-.63,1.33-.63,2.06,0,2.05,1.66,3.71,3.71,3.71,0,0,.01,0,.02,0Z"/><path class="cls-1" d="M314.92,626.89H164.2c-2.04,0-3.69,1.65-3.69,3.69h0v117.9c0,2.04,1.65,3.7,3.69,3.71h48.51v-74.21c0-2.03,1.64-3.68,3.67-3.69h45.02c2.03,0,3.68,1.64,3.69,3.67,0,0,0,.01,0,.02v74.21h49.8c2.04,0,3.7-1.67,3.69-3.71h0v-117.94c-.02-2.01-1.65-3.63-3.66-3.65Z"/></g><path class="cls-1" d="M835.83,595.97h-149.17c-1.98-.03-3.62,1.55-3.65,3.53,0,0,0,.01,0,.02v150.63c.03,1.98,1.67,3.57,3.65,3.54h149.17c1.99,.03,3.63-1.55,3.66-3.54h0v-150.63c-.02-1.98-1.65-3.57-3.63-3.55-.01,0-.02,0-.03,0m-81.62,98.34c-.02,1.99-1.65,3.58-3.64,3.56h-44.57c-1.99,.03-3.63-1.57-3.66-3.56h0v-27.08c.02-1.99,1.65-3.58,3.64-3.56,0,0,.01,0,.02,0h44.57c1.98-.03,3.61,1.56,3.64,3.54,0,0,0,.01,0,.02v27.08Zm0-50.06c-.02,1.99-1.65,3.58-3.64,3.56h-44.57c-1.99,.03-3.63-1.57-3.66-3.56h0v-27.1c.04-1.99,1.67-3.57,3.66-3.54h44.57c1.98-.03,3.61,1.56,3.64,3.54h0v27.1Zm68.12,50.06c-.02,1.99-1.65,3.58-3.64,3.56,0,0-.01,0-.02,0h-44.55c-1.99,.03-3.63-1.55-3.66-3.54,0,0,0-.01,0-.02v-27.08c.02-1.99,1.65-3.58,3.64-3.56,0,0,.01,0,.02,0h44.55c1.99-.03,3.63,1.55,3.66,3.54,0,0,0,.01,0,.02v27.08Zm0-50.06c-.02,1.99-1.65,3.58-3.64,3.56,0,0-.01,0-.02,0h-44.55c-1.99,.03-3.63-1.55-3.66-3.54,0,0,0-.01,0-.02v-27.1c.03-1.99,1.67-3.57,3.66-3.54h44.55c1.99-.03,3.63,1.55,3.66,3.54h0s0,27.1,0,27.1Z"/><path class="cls-1" d="M489.06,246.33h-146c-1.97,0-3.57,1.61-3.56,3.58h0v498.9c0,1.97,1.59,3.56,3.56,3.57h146c1.97,0,3.57-1.6,3.59-3.57V249.89c0-1.98-1.61-3.58-3.59-3.58m-86.84,449.23c0,1.06-.86,1.92-1.92,1.92h-33.42c-1.06,0-1.92-.86-1.92-1.92v-37.24c0-1.05,.86-1.91,1.91-1.91h33.43c1.05,0,1.91,.85,1.92,1.9,0,0,0,0,0,.01v37.24Zm0-85.55c0,1.05-.87,1.91-1.92,1.9h-33.42c-1.04-.02-1.87-.86-1.88-1.9v-37.23c0-1.05,.85-1.91,1.9-1.92,0,0,.01,0,.02,0h33.38c1.05,0,1.91,.85,1.92,1.9,0,0,0,.01,0,.02v37.23Zm0-85.53c0,1.06-.86,1.92-1.92,1.92h-33.42c-1.06,0-1.92-.86-1.92-1.92v-37.26c0-1.06,.86-1.91,1.92-1.91h33.42c1.06,0,1.91,.85,1.92,1.91v37.26Zm0-85.55c0,1.06-.86,1.92-1.92,1.92h-33.42c-1.05-.02-1.89-.89-1.88-1.94v-37.24c0-1.05,.86-1.9,1.91-1.89,0,0,0,0,.01,0h33.38c1.05-.01,1.91,.83,1.92,1.88,0,0,0,0,0,.01v37.26Zm0-85.53c0,1.06-.86,1.91-1.92,1.91h-33.42c-1.06,0-1.91-.85-1.92-1.91v-37.26c0-1.06,.86-1.92,1.92-1.92h33.42c1.06,0,1.92,.86,1.92,1.92h0v37.26Zm65.55,342.16c0,1.06-.86,1.92-1.92,1.92h-33.42c-1.05,0-1.91-.85-1.92-1.9,0,0,0-.01,0-.02v-37.24c0-1.05,.86-1.91,1.91-1.91h33.42c1.05-.01,1.92,.84,1.93,1.89,0,0,0,.01,0,.02v37.24Zm0-85.55c0,1.05-.85,1.91-1.9,1.92-.01,0-.02,0-.03,0h-33.41c-1.05,.01-1.91-.83-1.92-1.88,0-.01,0-.03,0-.04v-37.23c-.01-1.05,.83-1.91,1.88-1.92,.01,0,.03,0,.04,0h33.41c1.05-.01,1.92,.84,1.93,1.89,0,.01,0,.02,0,.03v37.23Zm0-85.53c0,1.06-.86,1.92-1.92,1.92h-33.42c-1.05,0-1.91-.85-1.92-1.9,0,0,0-.01,0-.02v-37.26c0-1.05,.86-1.91,1.91-1.91h33.42c1.06,0,1.92,.85,1.93,1.91h0v37.26Zm0-85.55c0,1.06-.86,1.92-1.92,1.92h-33.42c-1.05,0-1.91-.85-1.92-1.9,0,0,0-.01,0-.02v-37.26c0-1.05,.86-1.9,1.91-1.89,0,0,0,0,.01,0h33.41c1.05-.02,1.91,.82,1.93,1.87,0,0,0,.01,0,.02v37.26Zm0-85.53c0,1.06-.87,1.92-1.93,1.91h-33.41c-1.05,0-1.91-.85-1.92-1.9,0,0,0,0,0-.01v-37.26c0-1.05,.85-1.91,1.9-1.92,0,0,.01,0,.02,0h33.41c1.06,0,1.92,.85,1.93,1.91,0,0,0,0,0,.01v37.26Z"/><path class="cls-1" d="M839.32,580.81c0,1.66-1.34,3-3,3h-150.15c-1.66,0-3-1.34-3-3v-30c0-1.66,1.34-3,3-3h150.15c1.66,0,3,1.34,3,3v30Z"/><path class="cls-1" d="M665.4,340.54c-.47-1.64-1.96-2.78-3.67-2.79-.75,.02-1.48,.26-2.09,.69l-.27,.18-1.23,1.56-143.48,182-.66,.89c-.77,.75-1.22,1.77-1.25,2.84v223.65c0,1.97,1.61,3.57,3.58,3.56h145.84c1.97,0,3.56-1.58,3.57-3.55h0V342.04c0-.52-.12-1.03-.34-1.5Zm-60.4,98.84l1-1.28c9.81-12.6,26.36-33,34.42-42.86l1.06-1.26c.79-.96,1.97-1.52,3.21-1.52,1.96,0,3.64,1.41,4,3.34v46.09c0,2.22-1.78,4.04-4,4.1h-36.54c-2.22-.07-3.98-1.88-4-4.1,0-.91,.3-1.79,.85-2.51Zm-22.7,254.9c0,1.97-1.58,3.56-3.55,3.57h-43.54c-1.97,0-3.56-1.58-3.57-3.55v-27.25c0-1.97,1.59-3.56,3.56-3.56h43.52c1.97,0,3.56,1.58,3.57,3.55h0s0,27.24,0,27.24Zm0-50.32c0,1.97-1.58,3.56-3.55,3.57h-43.54c-1.97,0-3.56-1.58-3.57-3.55v-27.25c-.01-1.96,1.57-3.56,3.53-3.57,.01,0,.03,0,.04,0h43.51c1.96-.01,3.56,1.57,3.57,3.53,0,.01,0,.03,0,.04v27.23Zm0-50.32c0,1.97-1.59,3.56-3.56,3.56h-43.53c-1.97,0-3.56-1.58-3.57-3.55h0v-27.25c0-1.97,1.58-3.56,3.55-3.57h43.53c1.97,0,3.56,1.58,3.57,3.55v27.26Zm.13-110.27v60c0,1.97-1.6,3.56-3.57,3.57h-43.5c-1.97,.01-3.58-1.58-3.59-3.55,0,0,0-.01,0-.02v-7.55c.02-.46,.11-.9,.27-1.33,.06-.15,.14-.29,.22-.42,.09-.17,.2-.32,.32-.47,.1-.17,.27-.39,.4-.58,5.56-8,30.66-38.88,41.2-51.8l1.06-1.28c.79-.96,1.97-1.51,3.21-1.51,1.96,.01,3.63,1.41,4,3.33l-.02,1.61Zm66.38,210.91c0,1.97-1.6,3.57-3.57,3.57h-43.5c-1.97,.01-3.58-1.58-3.59-3.55,0,0,0-.01,0-.02v-27.23c0-1.97,1.61-3.57,3.58-3.56,0,0,0,0,.01,0h43.5c1.97,0,3.56,1.59,3.57,3.56v27.23Zm0-50.32c0,1.97-1.6,3.57-3.57,3.57h-43.5c-1.97,.01-3.58-1.58-3.59-3.55,0,0,0-.01,0-.02v-27.23c0-1.97,1.58-3.56,3.55-3.57,.01,0,.03,0,.04,0h43.5c1.97,0,3.57,1.6,3.57,3.57h0v27.23Zm0-50.32c-.01,1.97-1.6,3.55-3.57,3.56h-43.5c-1.97,.01-3.58-1.58-3.59-3.55,0,0,0,0,0-.01v-27.24c0-1.97,1.6-3.57,3.57-3.57,0,0,.01,0,.02,0h43.5c1.97,0,3.57,1.6,3.57,3.57h0v27.24Zm0-50.33c0,1.97-1.6,3.56-3.57,3.56h-43.5c-1.97,.01-3.58-1.58-3.59-3.55,0,0,0,0,0-.01v-27.23c0-1.97,1.6-3.57,3.57-3.57,0,0,.01,0,.02,0h43.5c1.97,0,3.57,1.6,3.57,3.57h0v27.23Zm0-50.33c0,1.97-1.6,3.57-3.57,3.57h-43.5c-1.97,.01-3.58-1.58-3.59-3.55,0,0,0-.01,0-.02v-27.23c0-1.97,1.59-3.57,3.56-3.58,.01,0,.02,0,.03,0h43.5c1.97,0,3.57,1.6,3.57,3.57h0v27.24Z"/></svg>