<?xml version="1.0" encoding="UTF-8"?><svg id="icons_only_layer" width="300px" height="300px" xmlns="http://www.w3.org/2000/svg" viewBox="0 0 1000 1000"><defs><style>.cls-1{fill:#fff;}</style></defs><path class="cls-1" d="M684.65,246.29c-.84-.92-2.03-1.44-3.28-1.43H318.57c-2.26-.08-4.16,1.68-4.24,3.93-.01,.31,.01,.62,.07,.93l61,368.63c.35,2.04,2.11,3.54,4.18,3.55h74.81l5.12,60h-31.48l73.25,73.24,73.42-73.41h-31.47l5.06-59.8h76.13c2.1,0,3.88-1.54,4.16-3.62l57-368.56c.2-1.23-.14-2.49-.93-3.46Zm-140.22,295.11c-11.76,10.74-27.4,16.2-43.29,15.1-15.9,1.11-31.57-4.35-43.34-15.1-27.18-27.15-17.48-60.93-8-78.39,5.84-10.93,47.6-73.64,51.2-79v-.42l.16,.2,.14-.2v.42c3.5,5.34,45.33,68,51.17,79,9.45,17.46,19.12,51.24-8.04,78.39Zm115.09-217.55c-9.83-4.33-22.3-2.77-34.26,2.07-45,18.25-75.66,24.81-123,10-29.82-9.34-57.72-28.88-90.69-17-21.89,7.87-42.28,15.38-67,15.19l-14.29-73.26h339.51l-10.27,63Z"/></svg>