<?xml version="1.0" encoding="UTF-8"?><svg id="icons_only_layer" width="300px" height="300px" xmlns="http://www.w3.org/2000/svg" viewBox="0 0 1000 1000"><defs><style>.cls-1{fill:#fff;}</style></defs><path id="_Compound_Path_" class="cls-1" d="M500,354.7c-80.95-.03-146.61,65.57-146.64,146.52-.03,80.95,65.57,146.61,146.52,146.64s146.61-65.57,146.64-146.52v-.07c0-80.93-65.59-146.55-146.52-146.57m-10.85,57.9c0-4.87,4.89-10.25,10.91-10.25s10.85,5.38,10.85,10.25v50.33c0,4.85-4.85,10.17-10.85,10.17s-10.91-5.32-10.91-10.17v-50.33Zm10.85,163.77c-42.11-.07-76.19-34.25-76.12-76.36,.05-33.29,21.7-62.7,53.47-72.64v28.39c-24.55,12.51-34.3,42.56-21.79,67.11,12.51,24.55,42.56,34.3,67.11,21.79,24.55-12.51,34.3-42.56,21.79-67.11-4.81-9.43-12.48-17.08-21.93-21.86v-28.39c40.22,12.45,62.74,55.15,50.28,95.38-9.88,31.92-39.4,53.69-72.81,53.69"/><path id="_Path_3" class="cls-1" d="M331.73,499.99c0-6.65-5.89-12-11.26-12h-64.19c-5.41,0-11.35,5.38-11.35,12s5.94,12.07,11.35,12.07h64.19c5.37,0,11.26-5.41,11.26-12.07"/><path id="_Path_4" class="cls-1" d="M755.07,499.99c0-6.65-5.89-12-11.26-12h-64.18c-5.41,0-11.35,5.38-11.35,12s5.94,12.07,11.35,12.07h64.18c5.37,0,11.26-5.41,11.26-12.07"/><path id="_Path_5" class="cls-1" d="M500,331.74c6.63,0,12-5.89,12-11.26v-64.19c0-5.41-5.39-11.35-12-11.35s-12.09,5.94-12.09,11.35v64.19c0,5.37,5.43,11.26,12.09,11.26"/><path id="_Path_6" class="cls-1" d="M500,755.07c6.63,0,12-5.89,12-11.26v-64.18c0-5.4-5.39-11.35-12-11.35s-12.09,5.95-12.09,11.35v64.18c0,5.37,5.43,11.26,12.09,11.26"/><path id="_Path_7" class="cls-1" d="M354,416.4c3.31-5.77,.88-13.36-3.8-16l-55.7-31.88c-4.7-2.69-12.52-1-15.83,4.8s-.83,13.43,3.86,16.12l55.71,31.88c4.66,2.67,12.46,.9,15.76-4.89"/><path id="_Path_8" class="cls-1" d="M721.39,626.67c3.29-5.75,.86-13.36-3.8-16l-55.7-31.88c-4.7-2.68-12.53-1-15.83,4.81-3.3,5.81-.84,13.43,3.85,16.11l55.71,31.88c4.66,2.67,12.46,.9,15.77-4.89"/><path id="_Path_9" class="cls-1" d="M583.61,353.98c5.76,3.29,13.35,.86,16-3.8l31.87-55.71c2.7-4.7,1-12.53-4.79-15.83-5.79-3.3-13.44-.84-16.12,3.86l-31.85,55.71c-2.67,4.67-.9,12.47,4.89,15.78"/><path id="_Path_10" class="cls-1" d="M373.33,721.4c5.76,3.29,13.35,.86,16-3.81l31.87-55.7c2.69-4.69,1-12.53-4.8-15.83-5.8-3.3-13.4-.85-16.08,3.86l-31.88,55.7c-2.67,4.66-.9,12.47,4.89,15.78"/><path id="_Path_11" class="cls-1" d="M416.14,354.12c5.75-3.31,7.49-11.1,4.81-15.76l-32-55.64c-2.7-4.69-10.32-7.15-16.08-3.84-5.76,3.31-7.51,11.17-4.8,15.86l32,55.63c2.69,4.66,10.3,7.07,16.09,3.75"/><path id="_Path_12" class="cls-1" d="M627.17,721.11c5.76-3.31,7.49-11.1,4.82-15.75l-32-55.64c-2.7-4.7-10.32-7.16-16.09-3.85-5.77,3.31-7.51,11.17-4.79,15.87l32,55.63c2.68,4.66,10.3,7.06,16.08,3.74"/><path id="_Path_13" class="cls-1" d="M645.89,416.14c3.31,5.76,11.09,7.49,15.75,4.82l55.63-32c4.7-2.7,7.18-10.33,3.86-16.09-3.32-5.76-11.16-7.5-15.86-4.8l-55.63,32c-4.67,2.68-7.07,10.31-3.75,16.08"/><path id="_Path_14" class="cls-1" d="M278.9,627.21c3.31,5.76,11.09,7.49,15.76,4.81l55.63-32c4.69-2.7,7.17-10.33,3.84-16.09-3.33-5.76-11.16-7.5-15.85-4.81l-55.63,32c-4.67,2.67-7.07,10.31-3.75,16.08"/></svg>