<?xml version="1.0" encoding="UTF-8"?><svg id="Layer_2" width="300px" height="300px" xmlns="http://www.w3.org/2000/svg" viewBox="0 0 1080 1080"><defs><style>.cls-1{fill:#efa03e;}.cls-2{fill:#f6b737;}.cls-3{fill:#fff;}.cls-4{fill:#e6793c;}.cls-5{fill:#b63e3e;}.cls-6{fill:#d04988;}.cls-7{fill:#ce9f3a;}.cls-8{fill:#e0593e;}.cls-9{fill:#db473f;}.cls-10{fill:#c88e3a;}.cls-11{fill:#43acd6;}.cls-12{fill:#185789;}.cls-13{fill:#1a3a66;}.cls-14{fill:#53723f;}.cls-15{fill:#297fb9;}.cls-16{fill:#852e3d;}.cls-17{fill:#76b248;}.cls-18{fill:#4d9348;}</style></defs><g><path class="cls-17" d="M377.84,362.12c-21.85,19.93-40.02,43.83-53.35,70.57l-90.61-45.12c18.94-37.99,44.73-71.95,75.77-100.25l68.19,74.8Z"/><path class="cls-12" d="M453.02,315.5c-27.97,10.84-53.4,26.76-75.18,46.62l-68.19-74.8c30.93-28.21,67.07-50.81,106.81-66.19l36.56,94.37Z"/><path class="cls-13" d="M540,198.16v101.14c-30.67,0-60,5.74-86.98,16.2l-36.56-94.37c38.3-14.84,79.96-22.97,123.54-22.97Z"/><path class="cls-9" d="M663.53,221.12l-36.56,94.38c-26.97-10.46-56.3-16.2-86.97-16.2v-101.14c43.57,0,85.23,8.13,123.53,22.96Z"/><path class="cls-7" d="M770.35,287.32l-68.19,74.8c-21.78-19.87-47.22-35.79-75.19-46.62l36.56-94.38c39.75,15.39,75.89,37.99,106.82,66.2Z"/><path class="cls-18" d="M846.12,387.57l-90.61,45.12c-13.33-26.74-31.5-50.64-53.35-70.57l68.19-74.8c31.04,28.31,56.83,62.26,75.77,100.25Z"/><path class="cls-5" d="M880.41,508.46l-100.72,9.33c-2.78-30.35-11.19-59.07-24.18-85.1l90.61-45.12c18.42,36.97,30.35,77.77,34.29,120.89Z"/><path class="cls-8" d="M881.84,540c0,32.46-4.51,63.84-12.94,93.58l-97.33-27.69c5.95-20.94,9.13-43.04,9.13-65.89,0-7.49-.34-14.9-1.01-22.21l100.72-9.33c.94,10.38,1.43,20.9,1.43,31.54Z"/><path class="cls-11" d="M868.9,633.58c-11.68,41.19-30.88,79.21-56.04,112.47l-80.77-60.99c17.72-23.42,31.25-50.18,39.48-79.17l97.33,27.69Z"/><path class="cls-2" d="M812.86,746.05c-25.41,33.63-56.91,62.39-92.85,84.68l-53.28-86.06c25.3-15.69,47.47-35.94,65.36-59.61l80.77,60.99Z"/><path class="cls-16" d="M720.01,830.73c-35.29,21.88-74.86,37.51-117.19,45.35l-18.59-99.44c29.79-5.53,57.65-16.55,82.5-31.97l53.28,86.06Z"/><path class="cls-4" d="M602.82,876.08c-20.36,3.78-41.36,5.76-62.82,5.76s-42.46-1.98-62.82-5.76l18.59-99.44c14.34,2.67,29.12,4.06,44.23,4.06s29.89-1.39,44.23-4.06l18.59,99.44Z"/><path class="cls-6" d="M495.77,776.64l-18.59,99.44c-42.34-7.84-81.91-23.47-117.2-45.35l53.29-86.06c24.85,15.42,52.71,26.44,82.5,31.97Z"/><path class="cls-1" d="M413.27,744.67l-53.29,86.06c-35.94-22.29-67.43-51.05-92.84-84.67l80.77-61c17.89,23.67,40.06,43.92,65.36,59.61Z"/><path class="cls-10" d="M347.91,685.06l-80.77,61c-25.15-33.26-44.36-71.29-56.04-112.48l97.33-27.69c8.23,28.99,21.76,55.75,39.48,79.17Z"/><path class="cls-14" d="M308.43,605.89l-97.33,27.69c-8.43-29.74-12.94-61.12-12.94-93.58,0-10.64,.49-21.16,1.44-31.54l100.71,9.33c-.67,7.31-1.01,14.72-1.01,22.21,0,22.85,3.18,44.95,9.13,65.89Z"/><path class="cls-15" d="M324.49,432.69c-12.99,26.03-21.4,54.75-24.18,85.1l-100.71-9.33c3.93-43.12,15.86-83.92,34.28-120.89l90.61,45.12Z"/></g><g><path class="cls-3" d="M411.47,616.82c14.04-11.41,27.2-21.93,39.04-32.02,21.06-17.55,42.99-36.41,53.52-44.75-10.53-8.34-32.46-27.2-53.52-44.75-11.84-10.09-25-20.62-39.04-32.02-3.07-3.07-4.83-7.02-4.83-10.97,0-3.51,.87-6.58,3.07-8.77,5.27-6.58,14.04-7.02,19.74-2.19l105.28,87.73c3.51,3.07,5.27,7.02,5.27,10.97,0,4.83-1.76,8.34-5.27,10.97l-105.28,87.73c-5.7,4.83-14.48,3.95-19.74-1.75-2.2-2.2-3.07-5.27-3.07-9.21s1.76-7.9,4.83-10.97Z"/><path class="cls-3" d="M572.01,616.82c14.04-11.41,27.2-21.93,39.04-32.02,21.06-17.55,42.99-36.41,53.52-44.75-10.53-8.34-32.46-27.2-53.52-44.75-11.84-10.09-25-20.62-39.04-32.02-3.07-3.07-4.83-7.02-4.83-10.97,0-3.51,.87-6.58,3.07-8.77,5.27-6.58,14.04-7.02,19.74-2.19l105.28,87.73c3.51,3.07,5.27,7.02,5.27,10.97,0,4.83-1.76,8.34-5.27,10.97l-105.28,87.73c-5.7,4.83-14.48,3.95-19.74-1.75-2.2-2.2-3.07-5.27-3.07-9.21s1.76-7.9,4.83-10.97Z"/></g></svg>